MulatAwash-Italic.ufo
<glyph name="numbersign" format="2">
  <advance width="995"/>
  <unicode hex="0023"/>
  <note>
numbersign
</note>
  <outline>
    <contour>
      <point x="146" y="-115" type="line"/>
      <point x="218" y="-115" type="line"/>
      <point x="408" y="197" type="line"/>
      <point x="596" y="197" type="line"/>
      <point x="409" y="-115" type="line"/>
      <point x="481" y="-115" type="line"/>
      <point x="670" y="197" type="line"/>
      <point x="889" y="197" type="line"/>
      <point x="928" y="260" type="line"/>
      <point x="710" y="260" type="line"/>
      <point x="822" y="452" type="line"/>
      <point x="1025" y="452" type="line"/>
      <point x="1064" y="518" type="line"/>
      <point x="862" y="518" type="line"/>
      <point x="1051" y="831" type="line"/>
      <point x="977" y="831" type="line"/>
      <point x="789" y="518" type="line"/>
      <point x="598" y="518" type="line"/>
      <point x="789" y="831" type="line"/>
      <point x="713" y="831" type="line"/>
      <point x="526" y="518" type="line"/>
      <point x="294" y="518" type="line"/>
      <point x="255" y="452" type="line"/>
      <point x="487" y="452" type="line"/>
      <point x="372" y="260" type="line"/>
      <point x="159" y="260" type="line"/>
      <point x="118" y="197" type="line"/>
      <point x="334" y="197" type="line"/>
    </contour>
    <contour>
      <point x="444" y="260" type="line"/>
      <point x="560" y="452" type="line"/>
      <point x="749" y="452" type="line"/>
      <point x="635" y="260" type="line"/>
    </contour>
  </outline>
</glyph>
<glyph name="asterisk" format="2">
  <advance width="613"/>
  <unicode hex="002A"/>
  <note>
asterisk
</note>
  <outline>
    <contour>
      <point x="477" y="231" type="curve" smooth="yes"/>
      <point x="487" y="231"/>
      <point x="495" y="238"/>
      <point x="503" y="253" type="curve" smooth="yes"/>
      <point x="508" y="264"/>
      <point x="509" y="274"/>
      <point x="506" y="282" type="curve" smooth="yes"/>
      <point x="483" y="325"/>
      <point x="459" y="372"/>
      <point x="434" y="424" type="curve"/>
      <point x="614" y="431" type="line"/>
      <point x="627" y="432" type="line"/>
      <point x="650" y="438"/>
      <point x="661" y="448"/>
      <point x="661" y="461" type="curve" smooth="yes"/>
      <point x="661" y="470"/>
      <point x="653" y="475"/>
      <point x="639" y="475" type="curve" smooth="yes"/>
      <point x="454" y="475" type="line"/>
      <point x="570" y="600" type="line" smooth="yes"/>
      <point x="584" y="614"/>
      <point x="590" y="625"/>
      <point x="590" y="634" type="curve" smooth="yes"/>
      <point x="590" y="642"/>
      <point x="589" y="648"/>
      <point x="587" y="652" type="curve" smooth="yes"/>
      <point x="583" y="663"/>
      <point x="574" y="663"/>
      <point x="560" y="649" type="curve" smooth="yes"/>
      <point x="402" y="489" type="line"/>
      <point x="322" y="646" type="line" smooth="yes"/>
      <point x="312" y="666"/>
      <point x="301" y="676"/>
      <point x="288" y="676" type="curve"/>
      <point x="282" y="674" type="line" smooth="yes"/>
      <point x="269" y="672"/>
      <point x="268" y="662"/>
      <point x="276" y="644" type="curve" smooth="yes"/>
      <point x="301" y="589"/>
      <point x="328" y="533"/>
      <point x="353" y="475" type="curve"/>
      <point x="155" y="475" type="line" smooth="yes"/>
      <point x="136" y="475"/>
      <point x="127" y="466"/>
      <point x="127" y="448" type="curve" smooth="yes"/>
      <point x="127" y="435"/>
      <point x="138" y="413"/>
      <point x="155" y="413" type="curve" smooth="yes"/>
      <point x="334" y="420" type="line"/>
      <point x="198" y="283" type="line" smooth="yes"/>
      <point x="155" y="240"/>
      <point x="243" y="219"/>
      <point x="238" y="239" type="curve"/>
      <point x="386" y="401" type="line"/>
      <point x="454" y="249" type="line"/>
      <point x="461" y="237"/>
      <point x="469" y="231"/>
    </contour>
  </outline>
</glyph>
<glyph name="comma" format="2">
  <advance width="302"/>
  <unicode hex="002C"/>
  <note>
comma
</note>
  <outline>
    <contour>
      <point x="119" y="-58" type="curve" smooth="yes"/>
      <point x="194" y="-33"/>
      <point x="268" y="31"/>
      <point x="268" y="116" type="curve" smooth="yes"/>
      <point x="268" y="205"/>
      <point x="146" y="210"/>
      <point x="136" y="126" type="curve" smooth="yes"/>
      <point x="128" y="78"/>
      <point x="178" y="48"/>
      <point x="225" y="82" type="curve"/>
      <point x="217" y="21"/>
      <point x="174" y="-24"/>
      <point x="116" y="-43" type="curve" smooth="yes"/>
      <point x="98" y="-49"/>
      <point x="100" y="-66"/>
    </contour>
  </outline>
</glyph>
<glyph name="four" format="2">
  <advance width="464"/>
  <unicode hex="0034"/>
  <note>
four
</note>
  <outline>
    <contour>
      <point x="240" y="0" type="curve"/>
      <point x="290" y="0" type="line"/>
      <point x="292" y="4"/>
      <point x="311" y="43"/>
      <point x="338" y="97" type="curve" smooth="yes"/>
      <point x="356" y="132"/>
      <point x="378" y="176"/>
      <point x="406" y="232" type="curve"/>
      <point x="440" y="233" type="line"/>
      <point x="449" y="239" type="line"/>
      <point x="455" y="252" type="line"/>
      <point x="448" y="257" type="line"/>
      <point x="419" y="257" type="line"/>
      <point x="430" y="276"/>
      <point x="501" y="412"/>
      <point x="500" y="416" type="curve" smooth="yes"/>
      <point x="498" y="424" type="line"/>
      <point x="491" y="428" type="line"/>
      <point x="478" y="425"/>
      <point x="473" y="423"/>
      <point x="460" y="420" type="curve" smooth="yes"/>
      <point x="452" y="418"/>
      <point x="447" y="412"/>
      <point x="443" y="404" type="curve" smooth="yes"/>
      <point x="364" y="253" type="line"/>
      <point x="84" y="248" type="line"/>
      <point x="92" y="256"/>
      <point x="187" y="340"/>
      <point x="366" y="504" type="curve" smooth="yes"/>
      <point x="418" y="553"/>
      <point x="458" y="591"/>
      <point x="485" y="620" type="curve" smooth="yes"/>
      <point x="514" y="650"/>
      <point x="528" y="669"/>
      <point x="526" y="677" type="curve" smooth="yes"/>
      <point x="524" y="685" type="line"/>
      <point x="516" y="689" type="line"/>
      <point x="487" y="684"/>
      <point x="472" y="692"/>
      <point x="425" y="634" type="curve" smooth="yes"/>
      <point x="353" y="536"/>
      <point x="232" y="436"/>
      <point x="128" y="332" type="curve" smooth="yes"/>
      <point x="76" y="279"/>
      <point x="45" y="245"/>
      <point x="38" y="231" type="curve"/>
      <point x="38" y="221" type="line"/>
      <point x="349" y="228" type="line"/>
      <point x="321" y="178"/>
      <point x="295" y="135"/>
      <point x="278" y="100" type="curve" smooth="yes"/>
      <point x="246" y="37"/>
      <point x="240" y="17"/>
    </contour>
  </outline>
</glyph>
<glyph name="five" format="2">
  <advance width="445"/>
  <unicode hex="0035"/>
  <note>
five
</note>
  <outline>
    <contour>
      <point x="-64" y="22" type="line"/>
      <point x="42" y="-46"/>
      <point x="410" y="101"/>
      <point x="410" y="339" type="curve" smooth="yes"/>
      <point x="410" y="408"/>
      <point x="361" y="444"/>
      <point x="290" y="444" type="curve" smooth="yes"/>
      <point x="237" y="444"/>
      <point x="193" y="426"/>
      <point x="140" y="390" type="curve"/>
      <point x="302" y="659" type="line"/>
      <point x="414" y="655" type="line" smooth="yes"/>
      <point x="483" y="653"/>
      <point x="511" y="650"/>
      <point x="559" y="715" type="curve"/>
      <point x="554" y="718" type="line"/>
      <point x="503" y="679"/>
      <point x="427" y="689"/>
      <point x="378" y="696" type="curve" smooth="yes"/>
      <point x="343" y="701"/>
      <point x="318" y="702"/>
      <point x="278" y="689" type="curve"/>
      <point x="275" y="687"/>
      <point x="269" y="678"/>
      <point x="261" y="665" type="curve" smooth="yes"/>
      <point x="225" y="609"/>
      <point x="147" y="472"/>
      <point x="108" y="399" type="curve" smooth="yes"/>
      <point x="96" y="377"/>
      <point x="88" y="361"/>
      <point x="86" y="355" type="curve"/>
      <point x="86" y="348" type="line"/>
      <point x="94" y="346" type="line"/>
      <point x="152" y="379"/>
      <point x="219" y="413"/>
      <point x="270" y="416" type="curve" smooth="yes"/>
      <point x="317" y="419"/>
      <point x="350" y="395"/>
      <point x="350" y="336" type="curve" smooth="yes"/>
      <point x="350" y="202"/>
      <point x="157" y="31"/>
      <point x="22" y="31" type="curve" smooth="yes"/>
      <point x="-8" y="31"/>
      <point x="-33" y="34"/>
      <point x="-52" y="42" type="curve"/>
      <point x="-57" y="39" type="line"/>
      <point x="-64" y="31" type="line"/>
    </contour>
  </outline>
</glyph>
<glyph name="nine" format="2">
  <advance width="495"/>
  <unicode hex="0039"/>
  <note>
nine
</note>
  <outline>
    <contour>
      <point x="86" y="-12" type="line"/>
      <point x="93" y="-12" type="line"/>
      <point x="190" y="51"/>
      <point x="285" y="133"/>
      <point x="378" y="233" type="curve" smooth="yes"/>
      <point x="472" y="334"/>
      <point x="534" y="459"/>
      <point x="536" y="552" type="curve" smooth="yes"/>
      <point x="538" y="645"/>
      <point x="495" y="707"/>
      <point x="418" y="707" type="curve" smooth="yes"/>
      <point x="284" y="707"/>
      <point x="99" y="517"/>
      <point x="99" y="378" type="curve" smooth="yes"/>
      <point x="99" y="323"/>
      <point x="132" y="264"/>
      <point x="185" y="264" type="curve" smooth="yes"/>
      <point x="279" y="264"/>
      <point x="368" y="385"/>
      <point x="411" y="497" type="curve"/>
      <point x="410" y="503" type="line"/>
      <point x="397" y="504" type="line"/>
      <point x="392" y="501" type="line"/>
      <point x="346" y="390"/>
      <point x="291" y="315"/>
      <point x="228" y="310" type="curve" smooth="yes"/>
      <point x="188" y="307"/>
      <point x="159" y="336"/>
      <point x="159" y="381" type="curve" smooth="yes"/>
      <point x="161" y="541"/>
      <point x="327" y="682"/>
      <point x="398" y="682" type="curve" smooth="yes"/>
      <point x="471" y="682"/>
      <point x="482" y="603"/>
      <point x="476" y="559" type="curve" smooth="yes"/>
      <point x="449" y="358"/>
      <point x="277" y="141"/>
      <point x="85" y="6" type="curve"/>
      <point x="80" y="-1" type="line"/>
    </contour>
  </outline>
</glyph>
<glyph name="greater" format="2">
  <advance width="457"/>
  <unicode hex="003E"/>
  <note>
greater
</note>
  <outline>
    <contour>
      <point x="167" y="60" type="curve" smooth="yes"/>
      <point x="176" y="47"/>
      <point x="203" y="59"/>
      <point x="288" y="112" type="curve" smooth="yes"/>
      <point x="354" y="153"/>
      <point x="417" y="206"/>
      <point x="417" y="224" type="curve" smooth="yes"/>
      <point x="417" y="246"/>
      <point x="368" y="297"/>
      <point x="332" y="331" type="curve" smooth="yes"/>
      <point x="188" y="465" type="line" smooth="yes"/>
      <point x="176" y="476"/>
      <point x="174" y="434"/>
      <point x="188" y="418" type="curve" smooth="yes"/>
      <point x="342" y="243" type="line"/>
      <point x="188" y="91" type="line" smooth="yes"/>
      <point x="176" y="79"/>
      <point x="163" y="66"/>
    </contour>
  </outline>
</glyph>
<glyph name="question" format="2">
  <advance width="432"/>
  <unicode hex="003F"/>
  <note>
question
</note>
  <outline>
    <contour>
      <point x="214" y="183" type="curve" smooth="yes"/>
      <point x="255" y="294"/>
      <point x="309" y="361"/>
      <point x="410" y="461" type="curve" smooth="yes"/>
      <point x="461" y="510"/>
      <point x="497" y="546"/>
      <point x="518" y="569" type="curve" smooth="yes"/>
      <point x="578" y="637"/>
      <point x="609" y="697"/>
      <point x="609" y="748" type="curve" smooth="yes"/>
      <point x="609" y="798"/>
      <point x="559" y="847"/>
      <point x="480" y="849" type="curve" smooth="yes"/>
      <point x="381" y="852"/>
      <point x="223" y="768"/>
      <point x="223" y="669" type="curve" smooth="yes"/>
      <point x="223" y="639"/>
      <point x="240" y="598"/>
      <point x="291" y="598" type="curve" smooth="yes"/>
      <point x="331" y="598"/>
      <point x="364" y="627"/>
      <point x="364" y="672" type="curve" smooth="yes"/>
      <point x="364" y="704"/>
      <point x="346" y="720"/>
      <point x="316" y="720" type="curve" smooth="yes"/>
      <point x="289" y="720"/>
      <point x="256" y="702"/>
      <point x="247" y="670" type="curve"/>
      <point x="247" y="677" type="line" smooth="yes"/>
      <point x="247" y="744"/>
      <point x="350" y="794"/>
      <point x="432" y="793" type="curve" smooth="yes"/>
      <point x="486" y="792"/>
      <point x="531" y="766"/>
      <point x="531" y="716" type="curve" smooth="yes"/>
      <point x="531" y="683"/>
      <point x="494" y="646"/>
      <point x="461" y="604" type="curve" smooth="yes"/>
      <point x="449" y="588"/>
      <point x="395" y="526"/>
      <point x="293" y="396" type="curve" smooth="yes"/>
      <point x="261" y="352"/>
      <point x="202" y="256"/>
      <point x="187" y="193" type="curve" smooth="yes"/>
      <point x="184" y="175"/>
      <point x="206" y="167"/>
    </contour>
    <contour>
      <point x="151" y="-51" type="curve" smooth="yes"/>
      <point x="176" y="-51"/>
      <point x="214" y="-32"/>
      <point x="214" y="18" type="curve" smooth="yes"/>
      <point x="214" y="32"/>
      <point x="199" y="55"/>
      <point x="170" y="55" type="curve" smooth="yes"/>
      <point x="140" y="55"/>
      <point x="106" y="33"/>
      <point x="106" y="-13" type="curve" smooth="yes"/>
      <point x="106" y="-27"/>
      <point x="122" y="-51"/>
    </contour>
  </outline>
</glyph>
<glyph name="at" format="2">
  <advance width="788"/>
  <unicode hex="0040"/>
  <note>
at
</note>
  <outline>
    <contour>
      <point x="356" y="-43" type="curve" smooth="yes"/>
      <point x="443" y="-43"/>
      <point x="527" y="-15"/>
      <point x="608" y="38" type="curve"/>
      <point x="620" y="44"/>
      <point x="608" y="60"/>
      <point x="599" y="51" type="curve"/>
      <point x="524" y="0"/>
      <point x="445" y="-26"/>
      <point x="362" y="-26" type="curve" smooth="yes"/>
      <point x="276" y="-26"/>
      <point x="203" y="-2"/>
      <point x="147" y="65" type="curve" smooth="yes"/>
      <point x="119" y="98"/>
      <point x="104" y="144"/>
      <point x="104" y="201" type="curve" smooth="yes"/>
      <point x="104" y="318"/>
      <point x="170" y="444"/>
      <point x="290" y="520" type="curve" smooth="yes"/>
      <point x="351" y="558"/>
      <point x="415" y="577"/>
      <point x="483" y="577" type="curve" smooth="yes"/>
      <point x="558" y="577"/>
      <point x="619" y="559"/>
      <point x="667" y="504" type="curve" smooth="yes"/>
      <point x="691" y="476"/>
      <point x="703" y="438"/>
      <point x="703" y="389" type="curve" smooth="yes"/>
      <point x="703" y="311"/>
      <point x="665" y="218"/>
      <point x="598" y="163" type="curve" smooth="yes"/>
      <point x="564" y="136"/>
      <point x="531" y="122"/>
      <point x="499" y="122" type="curve" smooth="yes"/>
      <point x="473" y="122"/>
      <point x="460" y="136"/>
      <point x="460" y="164" type="curve" smooth="yes"/>
      <point x="460" y="191"/>
      <point x="475" y="232"/>
      <point x="503" y="286" type="curve" smooth="yes"/>
      <point x="524" y="327"/>
      <point x="541" y="353"/>
      <point x="552" y="365" type="curve"/>
      <point x="547" y="363"/>
      <point x="539" y="364"/>
      <point x="529" y="366" type="curve" smooth="yes"/>
      <point x="519" y="368"/>
      <point x="511" y="369"/>
      <point x="508" y="369" type="curve" smooth="yes"/>
      <point x="477" y="369"/>
      <point x="464" y="343"/>
      <point x="431" y="280" type="curve" smooth="yes"/>
      <point x="410" y="238"/>
      <point x="386" y="202"/>
      <point x="359" y="171" type="curve" smooth="yes"/>
      <point x="335" y="142"/>
      <point x="314" y="128"/>
      <point x="295" y="128" type="curve" smooth="yes"/>
      <point x="278" y="128"/>
      <point x="269" y="139"/>
      <point x="269" y="161" type="curve" smooth="yes"/>
      <point x="269" y="192"/>
      <point x="281" y="228"/>
      <point x="307" y="270" type="curve" smooth="yes"/>
      <point x="347" y="336"/>
      <point x="396" y="390"/>
      <point x="439" y="413" type="curve" smooth="yes"/>
      <point x="451" y="420"/>
      <point x="463" y="423"/>
      <point x="475" y="423" type="curve" smooth="yes"/>
      <point x="499" y="423"/>
      <point x="515" y="412"/>
      <point x="522" y="389" type="curve"/>
      <point x="537" y="386"/>
      <point x="544" y="402"/>
      <point x="531" y="417" type="curve"/>
      <point x="511" y="437"/>
      <point x="486" y="447"/>
      <point x="455" y="447" type="curve" smooth="yes"/>
      <point x="444" y="447"/>
      <point x="433" y="446"/>
      <point x="420" y="442" type="curve" smooth="yes"/>
      <point x="375" y="432"/>
      <point x="338" y="409"/>
      <point x="307" y="372" type="curve" smooth="yes"/>
      <point x="253" y="307"/>
      <point x="226" y="244"/>
      <point x="226" y="181" type="curve" smooth="yes"/>
      <point x="226" y="145"/>
      <point x="236" y="121"/>
      <point x="257" y="109" type="curve" smooth="yes"/>
      <point x="264" y="103"/>
      <point x="273" y="101"/>
      <point x="283" y="101" type="curve" smooth="yes"/>
      <point x="319" y="101"/>
      <point x="371" y="151"/>
      <point x="416" y="225" type="curve"/>
      <point x="411" y="205"/>
      <point x="407" y="186"/>
      <point x="407" y="170" type="curve" smooth="yes"/>
      <point x="407" y="154"/>
      <point x="411" y="141"/>
      <point x="419" y="131" type="curve" smooth="yes"/>
      <point x="434" y="114"/>
      <point x="451" y="106"/>
      <point x="471" y="106" type="curve" smooth="yes"/>
      <point x="476" y="106" type="line" smooth="yes"/>
      <point x="514" y="106"/>
      <point x="573" y="125"/>
      <point x="601" y="147" type="curve" smooth="yes"/>
      <point x="683" y="214"/>
      <point x="735" y="307"/>
      <point x="735" y="390" type="curve" smooth="yes"/>
      <point x="735" y="430"/>
      <point x="725" y="466"/>
      <point x="706" y="494" type="curve" smooth="yes"/>
      <point x="691" y="518"/>
      <point x="671" y="537"/>
      <point x="647" y="551" type="curve" smooth="yes"/>
      <point x="598" y="579"/>
      <point x="543" y="594"/>
      <point x="481" y="594" type="curve" smooth="yes"/>
      <point x="275" y="594"/>
      <point x="67" y="418"/>
      <point x="67" y="206" type="curve" smooth="yes"/>
      <point x="67" y="145"/>
      <point x="84" y="93"/>
      <point x="117" y="53" type="curve" smooth="yes"/>
      <point x="171" y="-11"/>
      <point x="250" y="-43"/>
    </contour>
  </outline>
</glyph>
<glyph name="bracketleft" format="2">
  <advance width="635"/>
  <unicode hex="005B"/>
  <note>
bracketleft
</note>
  <outline>
    <contour>
      <point x="326" y="-11" type="curve"/>
      <point x="418" y="-2"/>
      <point x="437" y="6"/>
      <point x="440" y="25" type="curve" smooth="yes"/>
      <point x="441" y="29"/>
      <point x="432" y="45"/>
      <point x="419" y="44" type="curve" smooth="yes"/>
      <point x="333" y="39" type="line" smooth="yes"/>
      <point x="279" y="36"/>
      <point x="252" y="56"/>
      <point x="252" y="92" type="curve" smooth="yes"/>
      <point x="252" y="181"/>
      <point x="372" y="433"/>
      <point x="504" y="629" type="curve" smooth="yes"/>
      <point x="570" y="728"/>
      <point x="622" y="786"/>
      <point x="660" y="805" type="curve" smooth="yes"/>
      <point x="667" y="809"/>
      <point x="687" y="814"/>
      <point x="717" y="812" type="curve" smooth="yes"/>
      <point x="806" y="807" type="line"/>
      <point x="818" y="807" type="line" smooth="yes"/>
      <point x="830" y="807"/>
      <point x="835" y="814"/>
      <point x="835" y="829" type="curve" smooth="yes"/>
      <point x="835" y="857"/>
      <point x="799" y="872"/>
      <point x="727" y="872" type="curve" smooth="yes"/>
      <point x="703" y="872" type="line" smooth="yes"/>
      <point x="657" y="872"/>
      <point x="619" y="858"/>
      <point x="590" y="831" type="curve" smooth="yes"/>
      <point x="578" y="820"/>
      <point x="562" y="803"/>
      <point x="543" y="781" type="curve" smooth="yes"/>
      <point x="387" y="600"/>
      <point x="182" y="228"/>
      <point x="182" y="44" type="curve" smooth="yes"/>
      <point x="182" y="8"/>
      <point x="230" y="-11"/>
    </contour>
  </outline>
</glyph>
<glyph name="a" format="2">
  <advance width="530"/>
  <unicode hex="0061"/>
  <note>
a
</note>
  <anchor x="399" y="511" name="top"/>
  <outline>
    <contour>
      <point x="198" y="-12" type="curve" smooth="yes"/>
      <point x="256" y="-12"/>
      <point x="325" y="53"/>
      <point x="405" y="182" type="curve"/>
      <point x="393" y="136"/>
      <point x="379" y="71"/>
      <point x="404" y="30" type="curve" smooth="yes"/>
      <point x="422" y="2"/>
      <point x="445" y="-12"/>
      <point x="474" y="-12" type="curve" smooth="yes"/>
      <point x="537" y="-12"/>
      <point x="615" y="81"/>
      <point x="707" y="267" type="curve" smooth="yes"/>
      <point x="721" y="300"/>
      <point x="697" y="305"/>
      <point x="686" y="279" type="curve" smooth="yes"/>
      <point x="646" y="197"/>
      <point x="605" y="131"/>
      <point x="564" y="80" type="curve" smooth="yes"/>
      <point x="536" y="45"/>
      <point x="513" y="27"/>
      <point x="494" y="27" type="curve" smooth="yes"/>
      <point x="447" y="27"/>
      <point x="431" y="67"/>
      <point x="441" y="122" type="curve" smooth="yes"/>
      <point x="456" y="212"/>
      <point x="531" y="342"/>
      <point x="587" y="398" type="curve"/>
      <point x="565" y="392"/>
      <point x="572" y="404"/>
      <point x="549" y="404" type="curve" smooth="yes"/>
      <point x="509" y="404"/>
      <point x="490" y="382"/>
      <point x="452" y="308" type="curve" smooth="yes"/>
      <point x="355" y="124"/>
      <point x="276" y="32"/>
      <point x="216" y="32" type="curve" smooth="yes"/>
      <point x="191" y="32"/>
      <point x="160" y="51"/>
      <point x="160" y="90" type="curve" smooth="yes"/>
      <point x="160" y="216"/>
      <point x="241" y="335"/>
      <point x="288" y="387" type="curve" smooth="yes"/>
      <point x="351" y="455"/>
      <point x="413" y="489"/>
      <point x="497" y="489" type="curve" smooth="yes"/>
      <point x="534" y="489"/>
      <point x="540" y="470"/>
      <point x="569" y="445" type="curve" smooth="yes"/>
      <point x="587" y="429"/>
      <point x="605" y="457"/>
      <point x="585" y="479" type="curve" smooth="yes"/>
      <point x="553" y="511"/>
      <point x="514" y="527"/>
      <point x="468" y="527" type="curve" smooth="yes"/>
      <point x="417" y="527"/>
      <point x="314" y="499"/>
      <point x="237" y="410" type="curve" smooth="yes"/>
      <point x="152" y="309"/>
      <point x="110" y="209"/>
      <point x="110" y="111" type="curve" smooth="yes"/>
      <point x="110" y="37"/>
      <point x="148" y="-12"/>
    </contour>
  </outline>
</glyph>
<glyph name="b" format="2">
  <advance width="434"/>
  <unicode hex="0062"/>
  <note>
b
</note>
  <outline>
    <contour>
      <point x="225" y="-18" type="curve" smooth="yes"/>
      <point x="377" y="-18"/>
      <point x="450" y="123"/>
      <point x="486" y="199" type="curve" smooth="yes"/>
      <point x="515" y="263"/>
      <point x="536" y="335"/>
      <point x="534" y="393" type="curve" smooth="yes"/>
      <point x="532" y="453"/>
      <point x="505" y="499"/>
      <point x="438" y="509" type="curve" smooth="yes"/>
      <point x="380" y="521"/>
      <point x="365" y="482"/>
      <point x="417" y="479" type="curve" smooth="yes"/>
      <point x="526" y="473"/>
      <point x="501" y="331"/>
      <point x="432" y="207" type="curve" smooth="yes"/>
      <point x="378" y="108"/>
      <point x="297" y="21"/>
      <point x="233" y="21" type="curve" smooth="yes"/>
      <point x="197" y="21"/>
      <point x="156" y="58"/>
      <point x="156" y="111" type="curve" smooth="yes"/>
      <point x="156" y="193"/>
      <point x="203" y="297"/>
      <point x="265" y="432" type="curve" smooth="yes"/>
      <point x="301" y="510"/>
      <point x="341" y="597"/>
      <point x="399" y="696" type="curve" smooth="yes"/>
      <point x="427" y="744"/>
      <point x="452" y="800"/>
      <point x="482" y="829" type="curve"/>
      <point x="451" y="819"/>
      <point x="435" y="829"/>
      <point x="420" y="820" type="curve" smooth="yes"/>
      <point x="399" y="808"/>
      <point x="391" y="785"/>
      <point x="374" y="755" type="curve" smooth="yes"/>
      <point x="333" y="682"/>
      <point x="272" y="573"/>
      <point x="211" y="438" type="curve" smooth="yes"/>
      <point x="107" y="210"/>
      <point x="101" y="140"/>
      <point x="101" y="98" type="curve" smooth="yes"/>
      <point x="101" y="27"/>
      <point x="151" y="-18"/>
    </contour>
  </outline>
</glyph>
<glyph name="e" format="2">
  <advance width="384"/>
  <unicode hex="0065"/>
  <note>
e
</note>
  <anchor x="335" y="512" name="top"/>
  <outline>
    <contour>
      <point x="248" y="-13" type="curve" smooth="yes"/>
      <point x="326" y="-13"/>
      <point x="387" y="15"/>
      <point x="432" y="71" type="curve" smooth="yes"/>
      <point x="490" y="142"/>
      <point x="551" y="251"/>
      <point x="551" y="285" type="curve" smooth="yes"/>
      <point x="551" y="295"/>
      <point x="539" y="305"/>
      <point x="525" y="278" type="curve" smooth="yes"/>
      <point x="483" y="194"/>
      <point x="469" y="168"/>
      <point x="423" y="105" type="curve" smooth="yes"/>
      <point x="376" y="42"/>
      <point x="325" y="14"/>
      <point x="264" y="14" type="curve" smooth="yes"/>
      <point x="202" y="14"/>
      <point x="144" y="62"/>
      <point x="144" y="133" type="curve" smooth="yes"/>
      <point x="144" y="154.313"/>
      <point x="148.055" y="178.33"/>
      <point x="154.759" y="202.967" type="curve"/>
      <point x="177" y="203"/>
      <point x="441" y="331"/>
      <point x="461" y="347" type="curve" smooth="yes"/>
      <point x="492" y="371"/>
      <point x="503" y="402"/>
      <point x="503" y="436" type="curve" smooth="yes"/>
      <point x="503" y="482"/>
      <point x="472" y="521"/>
      <point x="398" y="521" type="curve" smooth="yes"/>
      <point x="322" y="521"/>
      <point x="255" y="482"/>
      <point x="197" y="403" type="curve" smooth="yes"/>
      <point x="141" y="326"/>
      <point x="90" y="212"/>
      <point x="90" y="124" type="curve" smooth="yes"/>
      <point x="90" y="52"/>
      <point x="136" y="-13"/>
    </contour>
    <contour>
      <point x="164.936" y="235.419" type="curve"/>
      <point x="181.511" y="282.372"/>
      <point x="205.388" y="328.288"/>
      <point x="227" y="359" type="curve" smooth="yes"/>
      <point x="287" y="445"/>
      <point x="349" y="488"/>
      <point x="417" y="488" type="curve" smooth="yes"/>
      <point x="453" y="488"/>
      <point x="463" y="463"/>
      <point x="463" y="435" type="curve" smooth="yes"/>
      <point x="462" y="372"/>
      <point x="437" y="359"/>
      <point x="391" y="335" type="curve" smooth="yes"/>
      <point x="332" y="305"/>
      <point x="263" y="279"/>
    </contour>
  </outline>
</glyph>
<glyph name="y" format="2">
  <advance width="592"/>
  <unicode hex="0079"/>
  <note>
y
</note>
  <anchor x="425" y="509" name="top"/>
  <outline>
    <contour>
      <point x="471" y="187" type="curve"/>
      <point x="499" y="241" type="line"/>
      <point x="445" y="26" type="line"/>
      <point x="352" y="-7" type="line" smooth="yes"/>
      <point x="223" y="-53"/>
      <point x="33" y="-177"/>
      <point x="25" y="-294" type="curve" smooth="yes"/>
      <point x="19" y="-377"/>
      <point x="96" y="-382"/>
      <point x="147" y="-382" type="curve" smooth="yes"/>
      <point x="180" y="-382"/>
      <point x="213" y="-374"/>
      <point x="245" y="-358" type="curve" smooth="yes"/>
      <point x="301" y="-329"/>
      <point x="350" y="-268"/>
      <point x="392" y="-198" type="curve" smooth="yes"/>
      <point x="424" y="-143"/>
      <point x="441" y="-95"/>
      <point x="463" y="-36" type="curve" smooth="yes"/>
      <point x="475" y="-3" type="line"/>
      <point x="532" y="21"/>
      <point x="600" y="110"/>
      <point x="678" y="267" type="curve"/>
      <point x="692" y="300"/>
      <point x="668" y="305"/>
      <point x="657" y="279" type="curve" smooth="yes"/>
      <point x="617" y="197"/>
      <point x="576" y="131"/>
      <point x="535" y="80" type="curve" smooth="yes"/>
      <point x="516" y="56"/>
      <point x="499" y="40"/>
      <point x="484" y="32" type="curve"/>
      <point x="494.499" y="86.918"/>
      <point x="545.437" y="261.848"/>
      <point x="567.282" y="337.658" type="curve"/>
      <point x="579" y="361" type="line" smooth="yes"/>
      <point x="625" y="452"/>
      <point x="636" y="476"/>
      <point x="671" y="510" type="curve"/>
      <point x="603" y="510" type="line" smooth="yes"/>
      <point x="593" y="510"/>
      <point x="541" y="401"/>
      <point x="524" y="368" type="curve" smooth="yes"/>
      <point x="453" y="229"/>
      <point x="394" y="137"/>
      <point x="351" y="87" type="curve" smooth="yes"/>
      <point x="317" y="47"/>
      <point x="263" y="27"/>
      <point x="241" y="27" type="curve" smooth="yes"/>
      <point x="213" y="27"/>
      <point x="167" y="43"/>
      <point x="167" y="87" type="curve" smooth="yes"/>
      <point x="167" y="126"/>
      <point x="196" y="198"/>
      <point x="229" y="274" type="curve" smooth="yes"/>
      <point x="281" y="394"/>
      <point x="332" y="485"/>
      <point x="376" y="510" type="curve"/>
      <point x="331" y="510" type="line" smooth="yes"/>
      <point x="302" y="510"/>
      <point x="286" y="499"/>
      <point x="273" y="478" type="curve" smooth="yes"/>
      <point x="251" y="444"/>
      <point x="211" y="367"/>
      <point x="177" y="284" type="curve" smooth="yes"/>
      <point x="143" y="201"/>
      <point x="120" y="118"/>
      <point x="120" y="81" type="curve" smooth="yes"/>
      <point x="120" y="54"/>
      <point x="138" y="-5"/>
      <point x="219" y="-5" type="curve" smooth="yes"/>
      <point x="321" y="-5"/>
      <point x="398" y="59"/>
    </contour>
    <contour>
      <point x="66" y="-295" type="curve" smooth="yes"/>
      <point x="71" y="-200"/>
      <point x="142" y="-167"/>
      <point x="217" y="-113" type="curve" smooth="yes"/>
      <point x="297" y="-54"/>
      <point x="408" y="-17"/>
      <point x="434" y="-7" type="curve"/>
      <point x="419" y="-80"/>
      <point x="386" y="-146"/>
      <point x="353" y="-191" type="curve" smooth="yes"/>
      <point x="314" y="-244"/>
      <point x="288" y="-282"/>
      <point x="258" y="-307" type="curve" smooth="yes"/>
      <point x="223" y="-336"/>
      <point x="181" y="-348"/>
      <point x="158" y="-348" type="curve" smooth="yes"/>
      <point x="130" y="-348"/>
      <point x="63" y="-352"/>
    </contour>
  </outline>
</glyph>
<glyph name="braceleft" format="2">
  <advance width="567"/>
  <unicode hex="007B"/>
  <note>
braceleft
</note>
  <outline>
    <contour>
      <point x="437" y="-136" type="curve" smooth="yes"/>
      <point x="443" y="-136" type="line" smooth="yes"/>
      <point x="454" y="-136"/>
      <point x="463" y="-108"/>
      <point x="447" y="-110" type="curve"/>
      <point x="392" y="-110"/>
      <point x="356" y="-100"/>
      <point x="339" y="-79" type="curve" smooth="yes"/>
      <point x="328" y="-67"/>
      <point x="323" y="-50"/>
      <point x="323" y="-28" type="curve" smooth="yes"/>
      <point x="323" y="-6"/>
      <point x="325" y="17"/>
      <point x="330" y="42" type="curve" smooth="yes"/>
      <point x="341" y="88"/>
      <point x="350" y="124"/>
      <point x="356" y="150" type="curve" smooth="yes"/>
      <point x="368" y="224"/>
      <point x="378" y="294"/>
      <point x="358" y="320" type="curve" smooth="yes"/>
      <point x="337" y="347"/>
      <point x="298" y="373"/>
      <point x="234" y="385" type="curve"/>
      <point x="310" y="399"/>
      <point x="364" y="424"/>
      <point x="394" y="462" type="curve" smooth="yes"/>
      <point x="443" y="522"/>
      <point x="455" y="628"/>
      <point x="480" y="731" type="curve" smooth="yes"/>
      <point x="503" y="827"/>
      <point x="536" y="864"/>
      <point x="653" y="864" type="curve"/>
      <point x="680" y="876"/>
      <point x="676" y="896"/>
      <point x="659" y="892" type="curve"/>
      <point x="654" y="892" type="line" smooth="yes"/>
      <point x="575" y="892"/>
      <point x="516" y="878"/>
      <point x="479" y="850" type="curve" smooth="yes"/>
      <point x="451" y="828"/>
      <point x="430" y="794"/>
      <point x="416" y="747" type="curve" smooth="yes"/>
      <point x="400" y="699"/>
      <point x="396" y="674"/>
      <point x="384" y="618" type="curve" smooth="yes"/>
      <point x="373" y="565" type="line" smooth="yes"/>
      <point x="360" y="504"/>
      <point x="343" y="464"/>
      <point x="317" y="444" type="curve" smooth="yes"/>
      <point x="293" y="424"/>
      <point x="247" y="409"/>
      <point x="179" y="402" type="curve"/>
      <point x="168" y="389"/>
      <point x="164" y="380"/>
      <point x="164" y="376" type="curve" smooth="yes"/>
      <point x="164" y="372"/>
      <point x="166" y="370"/>
      <point x="172" y="370" type="curve" smooth="yes"/>
      <point x="206" y="370"/>
      <point x="232" y="366"/>
      <point x="250" y="359" type="curve" smooth="yes"/>
      <point x="288" y="342"/>
      <point x="308" y="314"/>
      <point x="308" y="275" type="curve" smooth="yes"/>
      <point x="308" y="232"/>
      <point x="304" y="219"/>
      <point x="286" y="147" type="curve" smooth="yes"/>
      <point x="277" y="111"/>
      <point x="271" y="81"/>
      <point x="266" y="58" type="curve" smooth="yes"/>
      <point x="262" y="36"/>
      <point x="260" y="8"/>
      <point x="260" y="-24" type="curve" smooth="yes"/>
      <point x="260" y="-56"/>
      <point x="266" y="-80"/>
      <point x="280" y="-95" type="curve" smooth="yes"/>
      <point x="306" y="-123"/>
      <point x="359" y="-136"/>
    </contour>
  </outline>
</glyph>
<glyph name="bar" format="2">
  <advance width="485"/>
  <unicode hex="007C"/>
  <note>
bar
</note>
  <outline>
    <contour>
      <point x="217" y="-369" type="line"/>
      <point x="269" y="-369" type="line"/>
      <point x="269" y="807" type="line"/>
      <point x="217" y="807" type="line"/>
    </contour>
  </outline>
</glyph>
<glyph name="cent" format="2">
  <advance width="459"/>
  <unicode hex="00A2"/>
  <note>
cent
</note>
  <outline>
    <contour>
      <point x="124" y="-250" type="curve" smooth="yes"/>
      <point x="142" y="-255"/>
      <point x="161" y="-234"/>
      <point x="134" y="-228" type="curve" smooth="yes"/>
      <point x="117" y="-225"/>
      <point x="109" y="-211"/>
      <point x="109" y="-184" type="curve" smooth="yes"/>
      <point x="109" y="-140"/>
      <point x="134" y="-59"/>
      <point x="185" y="60" type="curve" smooth="yes"/>
      <point x="205" y="106" type="line"/>
      <point x="265" y="108"/>
      <point x="316" y="140"/>
      <point x="359" y="200" type="curve" smooth="yes"/>
      <point x="367" y="209"/>
      <point x="357" y="233"/>
      <point x="345" y="216" type="curve" smooth="yes"/>
      <point x="297" y="156"/>
      <point x="252" y="127"/>
      <point x="211" y="127" type="curve" smooth="yes"/>
      <point x="167" y="127"/>
      <point x="145" y="157"/>
      <point x="145" y="217" type="curve" smooth="yes"/>
      <point x="145" y="278"/>
      <point x="169" y="340"/>
      <point x="215" y="403" type="curve" smooth="yes"/>
      <point x="281" y="491"/>
      <point x="360" y="530"/>
      <point x="389" y="487" type="curve" smooth="yes"/>
      <point x="395" y="477"/>
      <point x="397" y="466"/>
      <point x="395" y="453" type="curve"/>
      <point x="392" y="463"/>
      <point x="371" y="475"/>
      <point x="350" y="475" type="curve" smooth="yes"/>
      <point x="321" y="475"/>
      <point x="297" y="452"/>
      <point x="297" y="420" type="curve" smooth="yes"/>
      <point x="297" y="388"/>
      <point x="321" y="363"/>
      <point x="356" y="363" type="curve" smooth="yes"/>
      <point x="390" y="363"/>
      <point x="419" y="397"/>
      <point x="419" y="439" type="curve" smooth="yes"/>
      <point x="419" y="480"/>
      <point x="395" y="516"/>
      <point x="357" y="528" type="curve"/>
      <point x="424" y="691" type="line"/>
      <point x="438" y="728" type="line" smooth="yes"/>
      <point x="447" y="744"/>
      <point x="436" y="759"/>
      <point x="429" y="759" type="curve" smooth="yes"/>
      <point x="422" y="759"/>
      <point x="416" y="752"/>
      <point x="409" y="736" type="curve" smooth="yes"/>
      <point x="326" y="533" type="line"/>
      <point x="316" y="533" type="line" smooth="yes"/>
      <point x="233" y="533"/>
      <point x="148" y="454"/>
      <point x="107" y="356" type="curve" smooth="yes"/>
      <point x="77" y="284"/>
      <point x="76" y="242"/>
      <point x="76" y="208" type="curve" smooth="yes"/>
      <point x="76" y="191"/>
      <point x="81" y="172"/>
      <point x="93" y="152" type="curve" smooth="yes"/>
      <point x="109" y="124"/>
      <point x="135" y="109"/>
      <point x="173" y="106" type="curve"/>
      <point x="170" y="98"/>
      <point x="162" y="80"/>
      <point x="149" y="50" type="curve" smooth="yes"/>
      <point x="101" y="-56"/>
      <point x="78" y="-132"/>
      <point x="78" y="-175" type="curve" smooth="yes"/>
      <point x="78" y="-215"/>
      <point x="93" y="-240"/>
    </contour>
  </outline>
</glyph>
<glyph name="sterling" format="2">
  <advance width="847"/>
  <unicode hex="00A3"/>
  <note>
sterling
</note>
  <outline>
    <contour>
      <point x="536" y="-77" type="curve" smooth="yes"/>
      <point x="597" y="-77"/>
      <point x="655" y="-53"/>
      <point x="661" y="9" type="curve" smooth="yes"/>
      <point x="661" y="10" type="line" smooth="yes"/>
      <point x="661" y="15"/>
      <point x="660" y="18"/>
      <point x="657" y="18" type="curve" smooth="yes"/>
      <point x="655" y="18"/>
      <point x="653" y="16"/>
      <point x="653" y="13" type="curve" smooth="yes"/>
      <point x="653" y="-42"/>
      <point x="592" y="-68"/>
      <point x="547" y="-68" type="curve" smooth="yes"/>
      <point x="501" y="-68"/>
      <point x="474" y="-62"/>
      <point x="391" y="-27" type="curve" smooth="yes"/>
      <point x="349" y="-10"/>
      <point x="318" y="6"/>
      <point x="298" y="20" type="curve"/>
      <point x="378" y="66"/>
      <point x="444" y="139"/>
      <point x="496" y="239" type="curve"/>
      <point x="522" y="237"/>
      <point x="542" y="235"/>
      <point x="557" y="235" type="curve" smooth="yes"/>
      <point x="572" y="235"/>
      <point x="586" y="238"/>
      <point x="599" y="243" type="curve" smooth="yes"/>
      <point x="610" y="247"/>
      <point x="601" y="266"/>
      <point x="580" y="259" type="curve"/>
      <point x="570" y="257"/>
      <point x="560" y="256"/>
      <point x="547" y="256" type="curve" smooth="yes"/>
      <point x="535" y="256"/>
      <point x="521" y="257"/>
      <point x="507" y="259" type="curve"/>
      <point x="538" y="325"/>
      <point x="552" y="371"/>
      <point x="595" y="432" type="curve" smooth="yes"/>
      <point x="635" y="491"/>
      <point x="704" y="552"/>
      <point x="766" y="552" type="curve" smooth="yes"/>
      <point x="791" y="552"/>
      <point x="803" y="542"/>
      <point x="803" y="521" type="curve" smooth="yes"/>
      <point x="803" y="478"/>
      <point x="765" y="424"/>
      <point x="690" y="363" type="curve" smooth="yes"/>
      <point x="674" y="350"/>
      <point x="697" y="347"/>
      <point x="701" y="356" type="curve"/>
      <point x="827" y="446"/>
      <point x="857" y="574"/>
      <point x="747" y="574" type="curve" smooth="yes"/>
      <point x="655" y="574"/>
      <point x="551" y="471"/>
      <point x="434" y="268" type="curve"/>
      <point x="420" y="270"/>
      <point x="400" y="271"/>
      <point x="376" y="271" type="curve" smooth="yes"/>
      <point x="352" y="271"/>
      <point x="331" y="267"/>
      <point x="313" y="258" type="curve" smooth="yes"/>
      <point x="311" y="257"/>
      <point x="310" y="253"/>
      <point x="310" y="247" type="curve" smooth="yes"/>
      <point x="310" y="241"/>
      <point x="312" y="238"/>
      <point x="315" y="238" type="curve"/>
      <point x="321" y="241" type="line"/>
      <point x="339" y="247" type="line" smooth="yes"/>
      <point x="353" y="250"/>
      <point x="368" y="251"/>
      <point x="381" y="251" type="curve" smooth="yes"/>
      <point x="396" y="251"/>
      <point x="409" y="251"/>
      <point x="423" y="249" type="curve"/>
      <point x="417" y="241"/>
      <point x="408" y="221"/>
      <point x="371" y="158" type="curve" smooth="yes"/>
      <point x="354" y="132"/>
      <point x="327" y="79"/>
      <point x="276" y="38" type="curve"/>
      <point x="231" y="72"/>
      <point x="225" y="79"/>
      <point x="185" y="97" type="curve" smooth="yes"/>
      <point x="164" y="106"/>
      <point x="145" y="110"/>
      <point x="128" y="110" type="curve" smooth="yes"/>
      <point x="91" y="110"/>
      <point x="54" y="91"/>
      <point x="54" y="51" type="curve" smooth="yes"/>
      <point x="54" y="-17"/>
      <point x="171" y="-33"/>
      <point x="248" y="3" type="curve"/>
      <point x="279" y="-15"/>
      <point x="396" y="-55"/>
      <point x="450" y="-67" type="curve" smooth="yes"/>
      <point x="477" y="-74"/>
      <point x="506" y="-77"/>
    </contour>
    <contour>
      <point x="160" y="-7" type="curve" smooth="yes"/>
      <point x="134" y="-7"/>
      <point x="110" y="0"/>
      <point x="88" y="14" type="curve" smooth="yes"/>
      <point x="71" y="27"/>
      <point x="61" y="42"/>
      <point x="61" y="60" type="curve" smooth="yes"/>
      <point x="61" y="77"/>
      <point x="74" y="87"/>
      <point x="91" y="87" type="curve" smooth="yes"/>
      <point x="114" y="87"/>
      <point x="157" y="63"/>
      <point x="233" y="12" type="curve"/>
      <point x="211" y="-1"/>
      <point x="186" y="-7"/>
    </contour>
  </outline>
</glyph>
<glyph name="currency" format="2">
  <advance width="933"/>
  <unicode hex="00A4"/>
  <note>
currency
</note>
  <outline>
    <contour>
      <point x="128" y="72" type="line"/>
      <point x="387" y="230" type="line"/>
      <point x="416" y="212"/>
      <point x="450" y="203"/>
      <point x="486" y="203" type="curve" smooth="yes"/>
      <point x="523" y="203"/>
      <point x="559" y="212"/>
      <point x="594" y="231" type="curve"/>
      <point x="781" y="79" type="line"/>
      <point x="654" y="275" type="line"/>
      <point x="690" y="315"/>
      <point x="707" y="357"/>
      <point x="707" y="400" type="curve" smooth="yes"/>
      <point x="707" y="423"/>
      <point x="702" y="443"/>
      <point x="692" y="460" type="curve"/>
      <point x="911" y="666" type="line"/>
      <point x="650" y="510" type="line"/>
      <point x="624" y="529"/>
      <point x="593" y="539"/>
      <point x="554" y="539" type="curve" smooth="yes"/>
      <point x="516" y="539"/>
      <point x="479" y="529"/>
      <point x="443" y="510" type="curve"/>
      <point x="258" y="659" type="line"/>
      <point x="383" y="464" type="line"/>
      <point x="347" y="428"/>
      <point x="330" y="385"/>
      <point x="330" y="335" type="curve" smooth="yes"/>
      <point x="330" y="314"/>
      <point x="334" y="295"/>
      <point x="344" y="277" type="curve"/>
    </contour>
    <contour>
      <point x="513" y="246" type="curve" smooth="yes"/>
      <point x="460" y="246"/>
      <point x="398" y="296"/>
      <point x="398" y="367" type="curve" smooth="yes"/>
      <point x="398" y="403"/>
      <point x="410" y="433"/>
      <point x="436" y="457" type="curve" smooth="yes"/>
      <point x="488" y="506"/>
      <point x="556" y="506"/>
      <point x="605" y="458" type="curve" smooth="yes"/>
      <point x="629" y="435"/>
      <point x="640" y="406"/>
      <point x="640" y="371" type="curve" smooth="yes"/>
      <point x="640" y="301"/>
      <point x="577" y="246"/>
    </contour>
  </outline>
</glyph>
<glyph name="brokenbar" format="2">
  <advance width="485"/>
  <unicode hex="00A6"/>
  <note>
brokenbar
</note>
  <outline>
    <contour>
      <point x="142" y="-369" type="line"/>
      <point x="204" y="-369" type="line"/>
      <point x="314" y="168" type="line"/>
      <point x="257" y="173" type="line"/>
    </contour>
    <contour>
      <point x="341" y="295" type="line"/>
      <point x="454" y="807" type="line"/>
      <point x="392" y="807" type="line"/>
      <point x="284" y="301" type="line"/>
    </contour>
  </outline>
</glyph>
<glyph name="dieresis" format="2">
  <advance width="278"/>
  <unicode hex="00A8"/>
  <note>
dieresis
</note>
  <anchor x="145" y="511" name="_top"/>
  <outline>
    <contour>
      <point x="233" y="652" type="curve" smooth="yes"/>
      <point x="258" y="652"/>
      <point x="275" y="670"/>
      <point x="275" y="695" type="curve" smooth="yes"/>
      <point x="275" y="720"/>
      <point x="256" y="737"/>
      <point x="232" y="737" type="curve" smooth="yes"/>
      <point x="207" y="737"/>
      <point x="190" y="718"/>
      <point x="190" y="693" type="curve" smooth="yes"/>
      <point x="190" y="668"/>
      <point x="208" y="652"/>
    </contour>
    <contour>
      <point x="40" y="650" type="curve" smooth="yes"/>
      <point x="65" y="650"/>
      <point x="83" y="669"/>
      <point x="83" y="695" type="curve" smooth="yes"/>
      <point x="83" y="721"/>
      <point x="64" y="739"/>
      <point x="38" y="739" type="curve" smooth="yes"/>
      <point x="12" y="739"/>
      <point x="-6" y="719"/>
      <point x="-6" y="693" type="curve" smooth="yes"/>
      <point x="-6" y="667"/>
      <point x="14" y="650"/>
    </contour>
  </outline>
</glyph>
<glyph name="periodcentered" format="2">
  <advance width="261"/>
  <unicode hex="00B7"/>
  <note>
periodcentered
</note>
  <outline>
    <contour>
      <point x="156" y="254" type="curve" smooth="yes"/>
      <point x="184" y="254"/>
      <point x="226" y="274"/>
      <point x="226" y="329" type="curve" smooth="yes"/>
      <point x="226" y="344"/>
      <point x="209" y="371"/>
      <point x="176" y="371" type="curve" smooth="yes"/>
      <point x="143" y="371"/>
      <point x="106" y="346"/>
      <point x="106" y="295" type="curve" smooth="yes"/>
      <point x="106" y="280"/>
      <point x="123" y="254"/>
    </contour>
  </outline>
</glyph>
<glyph name="circumflex" format="2">
  <advance width="485"/>
  <unicode hex="02C6"/>
  <note>
circumflex
</note>
  <anchor x="250" y="523" name="_top"/>
  <outline>
    <contour>
      <point x="47" y="613" type="line" smooth="yes"/>
      <point x="27" y="601"/>
      <point x="40" y="590"/>
      <point x="85" y="613" type="curve" smooth="yes"/>
      <point x="293" y="720" type="line"/>
      <point x="352" y="613" type="line" smooth="yes"/>
      <point x="358" y="602"/>
      <point x="390" y="599"/>
      <point x="382" y="613" type="curve"/>
      <point x="332" y="738" type="line" smooth="yes"/>
      <point x="330" y="743"/>
      <point x="322" y="759"/>
      <point x="313" y="759" type="curve" smooth="yes"/>
      <point x="304" y="759"/>
      <point x="286" y="759"/>
      <point x="271" y="750" type="curve" smooth="yes"/>
    </contour>
  </outline>
</glyph>
<glyph name="dotaccent" format="2">
  <advance width="272"/>
  <unicode hex="02D9"/>
  <note>
dotaccent
</note>
  <outline>
    <contour>
      <point x="92" y="588" type="curve" smooth="yes"/>
      <point x="92" y="532"/>
      <point x="199" y="561"/>
      <point x="199" y="625" type="curve" smooth="yes"/>
      <point x="199" y="656"/>
      <point x="187" y="672"/>
      <point x="163" y="672" type="curve" smooth="yes"/>
      <point x="131" y="672"/>
      <point x="92" y="622"/>
    </contour>
  </outline>
</glyph>
<glyph name="pi" format="2">
  <advance width="572"/>
  <unicode hex="03C0"/>
  <note>
pi
</note>
  <outline>
    <contour>
      <point x="152" y="-19" type="line"/>
      <point x="179" y="-19" type="line"/>
      <point x="281" y="464" type="line"/>
      <point x="298" y="459"/>
      <point x="327" y="448"/>
      <point x="369" y="431" type="curve" smooth="yes"/>
      <point x="411" y="414"/>
      <point x="444" y="403"/>
      <point x="468" y="398" type="curve"/>
      <point x="380" y="-15" type="line"/>
      <point x="407" y="-15" type="line"/>
      <point x="494" y="395" type="line"/>
      <point x="510" y="395"/>
      <point x="524" y="397"/>
      <point x="536" y="401" type="curve" smooth="yes"/>
      <point x="578" y="419"/>
      <point x="644" y="492"/>
      <point x="642" y="530" type="curve" smooth="yes"/>
      <point x="642" y="533" type="line" smooth="yes"/>
      <point x="642" y="539"/>
      <point x="632" y="537"/>
      <point x="622" y="517" type="curve" smooth="yes"/>
      <point x="609" y="492"/>
      <point x="583" y="461"/>
      <point x="526" y="461" type="curve" smooth="yes"/>
      <point x="497" y="461"/>
      <point x="452" y="474"/>
      <point x="390" y="501" type="curve" smooth="yes"/>
      <point x="328" y="527"/>
      <point x="287" y="540"/>
      <point x="266" y="540" type="curve" smooth="yes"/>
      <point x="200" y="540"/>
      <point x="125" y="481"/>
      <point x="125" y="410" type="curve" smooth="yes"/>
      <point x="125" y="382"/>
      <point x="134" y="413"/>
      <point x="164" y="450" type="curve" smooth="yes"/>
      <point x="188" y="478"/>
      <point x="224" y="474"/>
      <point x="255" y="470" type="curve"/>
    </contour>
  </outline>
</glyph>
<glyph name="twenty-ethiopic" format="2">
  <advance width="826"/>
  <unicode hex="1373"/>
  <outline>
    <contour>
      <point x="264" y="-10" type="curve"/>
      <point x="272" y="27" type="line"/>
      <point x="229" y="37"/>
      <point x="212" y="88"/>
      <point x="214" y="127" type="curve" smooth="yes"/>
      <point x="217" y="209"/>
      <point x="282" y="326"/>
      <point x="384" y="447" type="curve" smooth="yes"/>
      <point x="434" y="506"/>
      <point x="486" y="560"/>
      <point x="618" y="679" type="curve" smooth="yes"/>
      <point x="625" y="687"/>
      <point x="628" y="693"/>
      <point x="630" y="695" type="curve"/>
      <point x="622" y="708" type="line"/>
      <point x="614" y="707" type="line"/>
      <point x="514" y="636"/>
      <point x="416" y="552"/>
      <point x="324" y="454" type="curve" smooth="yes"/>
      <point x="223" y="347"/>
      <point x="154" y="217"/>
      <point x="154" y="126" type="curve" smooth="yes"/>
      <point x="154" y="43"/>
      <point x="193" y="-2"/>
    </contour>
    <contour>
      <point x="491" y="-11" type="line"/>
      <point x="609" y="154"/>
      <point x="525" y="461"/>
      <point x="422" y="503" type="curve"/>
      <point x="415" y="498" type="line"/>
      <point x="412" y="487" type="line"/>
      <point x="413" y="482" type="line"/>
      <point x="430" y="470"/>
      <point x="447" y="452"/>
      <point x="464" y="427" type="curve" smooth="yes"/>
      <point x="533" y="329"/>
      <point x="517" y="113"/>
      <point x="435" y="14" type="curve"/>
    </contour>
    <component base="_number.bars" xOffset="157"/>
    <component base="macron" yScale="0.1" xOffset="157"/>
    <component base="macron" xOffset="307" yOffset="197"/>
  </outline>
</glyph>
<glyph name="tenthousand-ethiopic" format="2">
  <advance width="1281"/>
  <unicode hex="137C"/>
  <outline>
    <contour>
      <point x="177" y="84" type="line"/>
      <point x="628" y="84" type="line"/>
      <point x="646" y="129" type="line"/>
      <point x="196" y="129" type="line"/>
    </contour>
    <component base="hundred-ethiopic"/>
    <component base="_number.bars" xOffset="537"/>
    <component base="hundred-ethiopic" xOffset="455"/>
  </outline>
</glyph>
<glyph name="endash" format="2">
  <advance width="534"/>
  <unicode hex="2013"/>
  <note>
endash
</note>
  <outline>
    <contour>
      <point x="89" y="264" type="curve"/>
      <point x="89" y="264"/>
      <point x="341" y="287"/>
      <point x="587" y="288" type="curve"/>
      <point x="601" y="289"/>
      <point x="609" y="297"/>
      <point x="611" y="308" type="curve"/>
      <point x="607" y="320"/>
      <point x="597" y="326"/>
      <point x="581" y="327" type="curve" smooth="yes"/>
      <point x="433" y="330"/>
      <point x="269" y="332"/>
      <point x="89" y="332" type="curve" smooth="yes"/>
      <point x="73" y="332"/>
      <point x="66" y="323"/>
      <point x="66" y="303" type="curve" smooth="yes"/>
      <point x="66" y="287"/>
      <point x="77" y="264"/>
    </contour>
  </outline>
</glyph>
<glyph name="quoteright" format="2">
  <advance width="158"/>
  <unicode hex="2019"/>
  <note>
quoteright
</note>
  <outline>
    <contour>
      <point x="147" y="588" type="curve" smooth="yes"/>
      <point x="223" y="613"/>
      <point x="292" y="670"/>
      <point x="292" y="754" type="curve" smooth="yes"/>
      <point x="292" y="846"/>
      <point x="175" y="861"/>
      <point x="164" y="772" type="curve" smooth="yes"/>
      <point x="157" y="724"/>
      <point x="207" y="694"/>
      <point x="253" y="728" type="curve"/>
      <point x="245" y="667"/>
      <point x="202" y="622"/>
      <point x="144" y="603" type="curve" smooth="yes"/>
      <point x="127" y="597"/>
      <point x="129" y="580"/>
    </contour>
  </outline>
</glyph>
<glyph name="quotedblleft" format="2">
  <advance width="421"/>
  <unicode hex="201C"/>
  <note>
quotedblleft
</note>
  <outline>
    <contour>
      <point x="327" y="601" type="curve" smooth="yes"/>
      <point x="405" y="606"/>
      <point x="414" y="670"/>
      <point x="401" y="701" type="curve" smooth="yes"/>
      <point x="395" y="714"/>
      <point x="381" y="718"/>
      <point x="365" y="718" type="curve" smooth="yes"/>
      <point x="350" y="718"/>
      <point x="336" y="714"/>
      <point x="323" y="706" type="curve"/>
      <point x="340" y="764"/>
      <point x="397" y="811"/>
      <point x="436" y="824" type="curve" smooth="yes"/>
      <point x="455" y="831"/>
      <point x="464" y="836"/>
      <point x="464" y="840" type="curve" smooth="yes"/>
      <point x="464" y="845"/>
      <point x="462" y="847"/>
      <point x="459" y="847" type="curve" smooth="yes"/>
      <point x="457" y="847"/>
      <point x="453" y="847"/>
      <point x="450" y="846" type="curve" smooth="yes"/>
      <point x="372" y="821"/>
      <point x="278" y="758"/>
      <point x="278" y="661" type="curve" smooth="yes"/>
      <point x="278" y="621"/>
      <point x="295" y="601"/>
    </contour>
    <contour>
      <point x="157" y="601" type="curve" smooth="yes"/>
      <point x="236" y="606"/>
      <point x="248" y="669"/>
      <point x="231" y="701" type="curve" smooth="yes"/>
      <point x="223" y="716"/>
      <point x="211" y="718"/>
      <point x="196" y="718" type="curve" smooth="yes"/>
      <point x="179" y="718"/>
      <point x="165" y="714"/>
      <point x="153" y="706" type="curve"/>
      <point x="170" y="764"/>
      <point x="226" y="811"/>
      <point x="265" y="824" type="curve" smooth="yes"/>
      <point x="285" y="831"/>
      <point x="295" y="836"/>
      <point x="295" y="840" type="curve" smooth="yes"/>
      <point x="295" y="845"/>
      <point x="293" y="847"/>
      <point x="290" y="847" type="curve" smooth="yes"/>
      <point x="286" y="847"/>
      <point x="283" y="847"/>
      <point x="280" y="846" type="curve" smooth="yes"/>
      <point x="202" y="821"/>
      <point x="109" y="758"/>
      <point x="109" y="661" type="curve" smooth="yes"/>
      <point x="109" y="621"/>
      <point x="125" y="601"/>
    </contour>
  </outline>
</glyph>
<glyph name="bullet" format="2">
  <advance width="978"/>
  <unicode hex="2022"/>
  <note>
bullet
</note>
  <outline>
    <contour>
      <point x="548" y="17" type="curve" smooth="yes"/>
      <point x="660" y="17"/>
      <point x="757" y="57"/>
      <point x="837" y="137" type="curve" smooth="yes"/>
      <point x="1003" y="303"/>
      <point x="1003" y="549"/>
      <point x="837" y="715" type="curve" smooth="yes"/>
      <point x="757" y="795"/>
      <point x="660" y="835"/>
      <point x="548" y="835" type="curve" smooth="yes"/>
      <point x="322" y="835"/>
      <point x="139" y="651"/>
      <point x="139" y="426" type="curve" smooth="yes"/>
      <point x="139" y="201"/>
      <point x="322" y="17"/>
    </contour>
  </outline>
</glyph>
<glyph name="ellipsis" format="2">
  <advance width="1094"/>
  <unicode hex="2026"/>
  <note>
ellipsis
</note>
  <outline>
    <contour>
      <point x="280" y="49" type="curve" smooth="yes"/>
      <point x="308" y="49"/>
      <point x="350" y="69"/>
      <point x="350" y="124" type="curve" smooth="yes"/>
      <point x="350" y="139"/>
      <point x="333" y="166"/>
      <point x="300" y="166" type="curve" smooth="yes"/>
      <point x="267" y="166"/>
      <point x="230" y="141"/>
      <point x="230" y="90" type="curve" smooth="yes"/>
      <point x="230" y="75"/>
      <point x="247" y="49"/>
    </contour>
    <contour>
      <point x="558" y="49" type="curve" smooth="yes"/>
      <point x="586" y="49"/>
      <point x="627" y="69"/>
      <point x="627" y="124" type="curve" smooth="yes"/>
      <point x="627" y="139"/>
      <point x="610" y="166"/>
      <point x="578" y="166" type="curve" smooth="yes"/>
      <point x="545" y="166"/>
      <point x="513" y="139"/>
      <point x="509" y="107" type="curve" smooth="yes"/>
      <point x="504" y="75"/>
      <point x="525" y="49"/>
    </contour>
    <contour>
      <point x="852" y="49" type="curve" smooth="yes"/>
      <point x="880" y="49"/>
      <point x="922" y="69"/>
      <point x="922" y="124" type="curve" smooth="yes"/>
      <point x="922" y="139"/>
      <point x="905" y="166"/>
      <point x="872" y="166" type="curve" smooth="yes"/>
      <point x="839" y="166"/>
      <point x="807" y="139"/>
      <point x="804" y="107" type="curve" smooth="yes"/>
      <point x="798" y="75"/>
      <point x="819" y="49"/>
    </contour>
  </outline>
</glyph>
<glyph name="perthousand" format="2">
  <advance width="913"/>
  <unicode hex="2030"/>
  <note>
perthousand
</note>
  <outline>
    <contour>
      <point x="194" y="-1" type="line"/>
      <point x="232" y="-1" type="line"/>
      <point x="741" y="798" type="line"/>
      <point x="703" y="798" type="line"/>
      <point x="583" y="596" type="line"/>
      <point x="556" y="557"/>
      <point x="483" y="556"/>
      <point x="501" y="572" type="curve"/>
      <point x="561" y="639"/>
      <point x="581" y="804"/>
      <point x="470" y="804" type="curve" smooth="yes"/>
      <point x="371" y="804"/>
      <point x="295" y="692"/>
      <point x="295" y="590" type="curve" smooth="yes"/>
      <point x="295" y="452"/>
      <point x="429" y="437"/>
      <point x="496" y="563" type="curve"/>
      <point x="504" y="557"/>
      <point x="514" y="554"/>
      <point x="528" y="554" type="curve" smooth="yes"/>
      <point x="541" y="554"/>
      <point x="554" y="559"/>
      <point x="568" y="568" type="curve"/>
    </contour>
    <contour>
      <point x="485" y="-9" type="curve" smooth="yes"/>
      <point x="576" y="-9"/>
      <point x="657" y="132"/>
      <point x="657" y="228" type="curve" smooth="yes"/>
      <point x="657" y="282"/>
      <point x="625" y="319"/>
      <point x="570" y="319" type="curve" smooth="yes"/>
      <point x="471" y="319"/>
      <point x="395" y="208"/>
      <point x="395" y="105" type="curve" smooth="yes"/>
      <point x="395" y="43"/>
      <point x="425" y="-9"/>
    </contour>
    <contour>
      <point x="485" y="4" type="curve" smooth="yes"/>
      <point x="455" y="4"/>
      <point x="441" y="32"/>
      <point x="441" y="88" type="curve" smooth="yes"/>
      <point x="441" y="128"/>
      <point x="451" y="184"/>
      <point x="501" y="252" type="curve" smooth="yes"/>
      <point x="526" y="286"/>
      <point x="554" y="304"/>
      <point x="585" y="304" type="curve" smooth="yes"/>
      <point x="657" y="304"/>
      <point x="652" y="202"/>
      <point x="590" y="89" type="curve" smooth="yes"/>
      <point x="558" y="32"/>
      <point x="523" y="4"/>
    </contour>
    <contour>
      <point x="775" y="-9" type="curve" smooth="yes"/>
      <point x="866" y="-9"/>
      <point x="947" y="132"/>
      <point x="947" y="228" type="curve" smooth="yes"/>
      <point x="947" y="282"/>
      <point x="913" y="319"/>
      <point x="861" y="319" type="curve" smooth="yes"/>
      <point x="761" y="319"/>
      <point x="684" y="208"/>
      <point x="684" y="105" type="curve" smooth="yes"/>
      <point x="684" y="43"/>
      <point x="716" y="-9"/>
    </contour>
    <contour>
      <point x="774" y="4" type="curve" smooth="yes"/>
      <point x="745" y="4"/>
      <point x="731" y="32"/>
      <point x="731" y="88" type="curve" smooth="yes"/>
      <point x="731" y="123"/>
      <point x="741" y="186"/>
      <point x="791" y="253" type="curve" smooth="yes"/>
      <point x="816" y="287"/>
      <point x="843" y="304"/>
      <point x="873" y="304" type="curve" smooth="yes"/>
      <point x="947" y="304"/>
      <point x="944" y="204"/>
      <point x="881" y="89" type="curve" smooth="yes"/>
      <point x="849" y="32"/>
      <point x="813" y="4"/>
    </contour>
    <contour>
      <point x="388" y="487" type="curve" smooth="yes"/>
      <point x="357" y="487"/>
      <point x="342" y="515"/>
      <point x="342" y="571" type="curve" smooth="yes"/>
      <point x="342" y="627"/>
      <point x="362" y="682"/>
      <point x="402" y="736" type="curve" smooth="yes"/>
      <point x="427" y="770"/>
      <point x="454" y="787"/>
      <point x="485" y="787" type="curve" smooth="yes"/>
      <point x="521" y="787"/>
      <point x="539" y="759"/>
      <point x="539" y="703" type="curve"/>
      <point x="525" y="704" type="line" smooth="yes"/>
      <point x="477" y="704"/>
      <point x="466" y="657"/>
      <point x="489" y="570" type="curve"/>
      <point x="466" y="525"/>
      <point x="426" y="487"/>
    </contour>
  </outline>
</glyph>
<glyph name="guilsinglleft" format="2">
  <advance width="633"/>
  <unicode hex="2039"/>
  <note>
guilsinglleft
</note>
  <outline>
    <contour>
      <point x="306" y="114" type="curve" smooth="yes"/>
      <point x="319" y="114"/>
      <point x="326" y="122"/>
      <point x="331" y="136" type="curve"/>
      <point x="324" y="152"/>
      <point x="305" y="185"/>
      <point x="274" y="236" type="curve" smooth="yes"/>
      <point x="245" y="288"/>
      <point x="222" y="330"/>
      <point x="206" y="363" type="curve"/>
      <point x="262" y="430"/>
      <point x="330" y="509"/>
      <point x="412" y="602" type="curve" smooth="yes"/>
      <point x="443" y="634"/>
      <point x="448" y="652"/>
      <point x="428" y="652" type="curve" smooth="yes"/>
      <point x="415" y="652"/>
      <point x="401" y="645"/>
      <point x="388" y="632" type="curve" smooth="yes"/>
      <point x="341" y="587"/>
      <point x="291" y="536"/>
      <point x="240" y="480" type="curve" smooth="yes"/>
      <point x="161" y="398"/>
      <point x="120" y="350"/>
      <point x="115" y="334" type="curve"/>
      <point x="115" y="325"/>
      <point x="118" y="320"/>
      <point x="122" y="319" type="curve"/>
      <point x="208" y="231"/>
      <point x="264" y="163"/>
      <point x="289" y="119" type="curve"/>
      <point x="296" y="116"/>
      <point x="302" y="114"/>
    </contour>
    <contour>
      <point x="597" y="114" type="curve" smooth="yes"/>
      <point x="609" y="114"/>
      <point x="617" y="122"/>
      <point x="621" y="136" type="curve"/>
      <point x="497" y="363" type="line"/>
      <point x="540" y="414"/>
      <point x="579" y="466"/>
      <point x="639" y="534" type="curve" smooth="yes"/>
      <point x="679" y="578"/>
      <point x="656" y="609"/>
      <point x="629" y="580" type="curve" smooth="yes"/>
      <point x="592" y="540"/>
      <point x="562" y="515"/>
      <point x="529" y="480" type="curve" smooth="yes"/>
      <point x="451" y="398"/>
      <point x="409" y="350"/>
      <point x="405" y="334" type="curve"/>
      <point x="405" y="325"/>
      <point x="408" y="320"/>
      <point x="414" y="319" type="curve"/>
      <point x="501" y="229"/>
      <point x="557" y="162"/>
      <point x="580" y="119" type="curve"/>
      <point x="586" y="116"/>
      <point x="592" y="114"/>
    </contour>
  </outline>
</glyph>
<glyph name="zero.superior" format="2">
  <advance width="474"/>
  <unicode hex="2070"/>
  <note>
zero.superior
</note>
  <outline>
    <contour>
      <point x="212" y="218" type="curve" smooth="yes"/>
      <point x="341" y="218"/>
      <point x="456" y="401"/>
      <point x="501" y="526" type="curve" smooth="yes"/>
      <point x="519" y="578"/>
      <point x="536" y="639"/>
      <point x="536" y="678" type="curve" smooth="yes"/>
      <point x="536" y="749"/>
      <point x="506" y="784"/>
      <point x="447" y="784" type="curve" smooth="yes"/>
      <point x="346" y="784"/>
      <point x="222" y="659"/>
      <point x="153" y="520" type="curve" smooth="yes"/>
      <point x="118" y="451"/>
      <point x="101" y="391"/>
      <point x="101" y="343" type="curve" smooth="yes"/>
      <point x="101" y="272"/>
      <point x="136" y="218"/>
    </contour>
    <contour>
      <point x="217" y="237" type="curve" smooth="yes"/>
      <point x="178" y="237"/>
      <point x="149" y="288"/>
      <point x="149" y="336" type="curve" smooth="yes"/>
      <point x="149" y="377"/>
      <point x="167" y="439"/>
      <point x="201" y="504" type="curve" smooth="yes"/>
      <point x="267" y="631"/>
      <point x="380" y="766"/>
      <point x="448" y="766" type="curve" smooth="yes"/>
      <point x="514" y="766"/>
      <point x="525" y="688"/>
      <point x="465" y="527" type="curve" smooth="yes"/>
      <point x="409" y="383"/>
      <point x="297" y="237"/>
    </contour>
  </outline>
</glyph>
<glyph name="four.superior" format="2">
  <advance width="371"/>
  <unicode hex="2074"/>
  <note>
four.superior
</note>
  <outline>
    <contour>
      <point x="192" y="230" type="curve"/>
      <point x="232" y="230" type="line"/>
      <point x="234" y="233"/>
      <point x="249" y="264"/>
      <point x="270" y="308" type="curve" smooth="yes"/>
      <point x="285" y="336"/>
      <point x="302" y="371"/>
      <point x="325" y="416" type="curve"/>
      <point x="352" y="416" type="line"/>
      <point x="359" y="421" type="line"/>
      <point x="364" y="432" type="line"/>
      <point x="358" y="436" type="line"/>
      <point x="335" y="436" type="line"/>
      <point x="344" y="451"/>
      <point x="401" y="560"/>
      <point x="400" y="563" type="curve" smooth="yes"/>
      <point x="398" y="569" type="line"/>
      <point x="393" y="572" type="line"/>
      <point x="382" y="570"/>
      <point x="378" y="568"/>
      <point x="368" y="566" type="curve" smooth="yes"/>
      <point x="362" y="564"/>
      <point x="358" y="560"/>
      <point x="354" y="553" type="curve" smooth="yes"/>
      <point x="291" y="432" type="line"/>
      <point x="67" y="428" type="line"/>
      <point x="74" y="435"/>
      <point x="150" y="502"/>
      <point x="293" y="633" type="curve" smooth="yes"/>
      <point x="334" y="672"/>
      <point x="366" y="703"/>
      <point x="388" y="726" type="curve" smooth="yes"/>
      <point x="411" y="750"/>
      <point x="422" y="765"/>
      <point x="421" y="772" type="curve" smooth="yes"/>
      <point x="419" y="778" type="line"/>
      <point x="413" y="781" type="line"/>
      <point x="390" y="777"/>
      <point x="378" y="784"/>
      <point x="340" y="737" type="curve" smooth="yes"/>
      <point x="282" y="659"/>
      <point x="186" y="579"/>
      <point x="102" y="496" type="curve" smooth="yes"/>
      <point x="61" y="453"/>
      <point x="36" y="426"/>
      <point x="30" y="415" type="curve"/>
      <point x="30" y="407" type="line"/>
      <point x="279" y="412" type="line"/>
      <point x="257" y="372"/>
      <point x="236" y="338"/>
      <point x="222" y="310" type="curve" smooth="yes"/>
      <point x="197" y="260"/>
      <point x="192" y="244"/>
    </contour>
  </outline>
</glyph>
<glyph name="five.inferior" format="2">
  <advance width="356"/>
  <unicode hex="2085"/>
  <note>
five.inferior
</note>
  <outline>
    <contour>
      <point x="-51" y="-28" type="line"/>
      <point x="34" y="-83"/>
      <point x="328" y="35"/>
      <point x="328" y="225" type="curve" smooth="yes"/>
      <point x="328" y="280"/>
      <point x="289" y="309"/>
      <point x="232" y="309" type="curve" smooth="yes"/>
      <point x="190" y="309"/>
      <point x="154" y="295"/>
      <point x="112" y="266" type="curve"/>
      <point x="242" y="481" type="line"/>
      <point x="331" y="478" type="line" smooth="yes"/>
      <point x="386" y="476"/>
      <point x="409" y="474"/>
      <point x="447" y="526" type="curve"/>
      <point x="443" y="528" type="line"/>
      <point x="402" y="497"/>
      <point x="342" y="505"/>
      <point x="302" y="511" type="curve" smooth="yes"/>
      <point x="274" y="515"/>
      <point x="254" y="516"/>
      <point x="222" y="505" type="curve"/>
      <point x="220" y="504"/>
      <point x="215" y="496"/>
      <point x="209" y="486" type="curve" smooth="yes"/>
      <point x="180" y="441"/>
      <point x="118" y="332"/>
      <point x="86" y="273" type="curve" smooth="yes"/>
      <point x="77" y="256"/>
      <point x="70" y="243"/>
      <point x="69" y="238" type="curve"/>
      <point x="69" y="232" type="line"/>
      <point x="75" y="231" type="line"/>
      <point x="122" y="257"/>
      <point x="175" y="284"/>
      <point x="216" y="287" type="curve" smooth="yes"/>
      <point x="254" y="289"/>
      <point x="280" y="270"/>
      <point x="280" y="223" type="curve" smooth="yes"/>
      <point x="280" y="116"/>
      <point x="126" y="-21"/>
      <point x="18" y="-21" type="curve" smooth="yes"/>
      <point x="-6" y="-21"/>
      <point x="-26" y="-19"/>
      <point x="-42" y="-12" type="curve"/>
      <point x="-46" y="-15" type="line"/>
      <point x="-51" y="-21" type="line"/>
    </contour>
  </outline>
</glyph>
<glyph name="Euro" format="2">
  <advance width="851"/>
  <unicode hex="20AC"/>
  <note>
Euro
</note>
  <outline>
    <contour>
      <point x="366" y="-133" type="curve" smooth="yes"/>
      <point x="496" y="-133"/>
      <point x="607" y="-65"/>
      <point x="699" y="68" type="curve"/>
      <point x="702" y="85" type="line"/>
      <point x="701" y="95"/>
      <point x="697" y="95"/>
      <point x="690" y="83" type="curve"/>
      <point x="613" y="-16"/>
      <point x="503" y="-113"/>
      <point x="402" y="-113" type="curve" smooth="yes"/>
      <point x="299" y="-113"/>
      <point x="250" y="-28"/>
      <point x="250" y="91" type="curve" smooth="yes"/>
      <point x="250" y="128"/>
      <point x="254" y="168"/>
      <point x="265" y="211" type="curve"/>
      <point x="477" y="211" type="line"/>
      <point x="488" y="235" type="line"/>
      <point x="270" y="235" type="line"/>
      <point x="275" y="252"/>
      <point x="280" y="266"/>
      <point x="285" y="277" type="curve"/>
      <point x="504" y="277" type="line"/>
      <point x="517" y="301" type="line"/>
      <point x="296" y="301" type="line"/>
      <point x="329" y="371"/>
      <point x="375" y="436"/>
      <point x="434" y="496" type="curve" smooth="yes"/>
      <point x="494" y="556"/>
      <point x="573" y="595"/>
      <point x="649" y="595" type="curve" smooth="yes"/>
      <point x="690" y="595"/>
      <point x="710" y="571"/>
      <point x="710" y="525" type="curve" smooth="yes"/>
      <point x="710" y="511"/>
      <point x="707" y="493"/>
      <point x="702" y="471" type="curve" smooth="yes"/>
      <point x="696" y="449"/>
      <point x="682" y="417"/>
      <point x="658" y="375" type="curve" smooth="yes"/>
      <point x="653" y="365" type="line"/>
      <point x="653" y="360"/>
      <point x="656" y="359"/>
      <point x="663" y="359" type="curve" smooth="yes"/>
      <point x="709" y="359"/>
      <point x="741" y="439"/>
      <point x="741" y="492" type="curve" smooth="yes"/>
      <point x="741" y="573"/>
      <point x="680" y="623"/>
      <point x="600" y="623" type="curve" smooth="yes"/>
      <point x="520" y="623"/>
      <point x="438" y="577"/>
      <point x="375" y="512" type="curve" smooth="yes"/>
      <point x="311" y="447"/>
      <point x="263" y="376"/>
      <point x="230" y="301" type="curve"/>
      <point x="194" y="301" type="line"/>
      <point x="182" y="277" type="line"/>
      <point x="219" y="277" type="line"/>
      <point x="217" y="271"/>
      <point x="213" y="257"/>
      <point x="206" y="235" type="curve"/>
      <point x="166" y="235" type="line"/>
      <point x="155" y="211" type="line"/>
      <point x="200" y="211" type="line"/>
      <point x="189" y="164"/>
      <point x="183" y="122"/>
      <point x="183" y="82" type="curve" smooth="yes"/>
      <point x="183" y="-48"/>
      <point x="241" y="-133"/>
    </contour>
  </outline>
</glyph>
<glyph name="twothirds" format="2">
  <advance width="907"/>
  <unicode hex="2154"/>
  <note>
twothirds
</note>
  <outline>
    <contour>
      <point x="385" y="306" type="curve" smooth="yes"/>
      <point x="424" y="306"/>
      <point x="474" y="344"/>
      <point x="537" y="420" type="curve"/>
      <point x="537" y="424" type="line"/>
      <point x="529" y="430" type="line"/>
      <point x="518" y="427"/>
      <point x="497" y="400"/>
      <point x="469" y="376" type="curve" smooth="yes"/>
      <point x="457" y="366"/>
      <point x="423" y="336"/>
      <point x="408" y="336" type="curve" smooth="yes"/>
      <point x="393" y="336"/>
      <point x="360" y="349"/>
      <point x="286" y="385" type="curve"/>
      <point x="289" y="388"/>
      <point x="498" y="587"/>
      <point x="577" y="679" type="curve" smooth="yes"/>
      <point x="621" y="729"/>
      <point x="637" y="769"/>
      <point x="637" y="800" type="curve" smooth="yes"/>
      <point x="637" y="820"/>
      <point x="627" y="836"/>
      <point x="613" y="849" type="curve" smooth="yes"/>
      <point x="597" y="864"/>
      <point x="576" y="871"/>
      <point x="550" y="871" type="curve" smooth="yes"/>
      <point x="461" y="871"/>
      <point x="382" y="788"/>
      <point x="349" y="694" type="curve"/>
      <point x="350" y="688" type="line"/>
      <point x="362" y="688" type="line"/>
      <point x="366" y="692" type="line"/>
      <point x="394" y="766"/>
      <point x="458" y="841"/>
      <point x="522" y="842" type="curve" smooth="yes"/>
      <point x="565" y="843"/>
      <point x="589" y="827"/>
      <point x="589" y="799" type="curve" smooth="yes"/>
      <point x="589" y="771"/>
      <point x="582" y="731"/>
      <point x="545" y="687" type="curve" smooth="yes"/>
      <point x="480" y="608"/>
      <point x="377" y="508"/>
      <point x="256" y="396" type="curve"/>
      <point x="252" y="399"/>
      <point x="245" y="400"/>
      <point x="235" y="397" type="curve" smooth="yes"/>
      <point x="229" y="396"/>
      <point x="157" y="324"/>
      <point x="155" y="318" type="curve"/>
      <point x="168" y="310" type="line"/>
      <point x="235" y="363" type="line"/>
      <point x="261" y="354"/>
      <point x="323" y="306"/>
    </contour>
    <contour>
      <point x="202" y="-82" type="curve" smooth="yes"/>
      <point x="232" y="-82"/>
      <point x="348" y="32"/>
      <point x="535" y="260" type="curve" smooth="yes"/>
      <point x="619" y="360"/>
      <point x="725" y="506"/>
      <point x="792" y="590" type="curve" smooth="yes"/>
      <point x="978" y="823" type="line" smooth="yes"/>
      <point x="984" y="831"/>
      <point x="987" y="836"/>
      <point x="987" y="841" type="curve" smooth="yes"/>
      <point x="987" y="850"/>
      <point x="977" y="854"/>
      <point x="968" y="854" type="curve" smooth="yes"/>
      <point x="949" y="854"/>
      <point x="935" y="848"/>
      <point x="925" y="836" type="curve" smooth="yes"/>
      <point x="895" y="796"/>
      <point x="825" y="703"/>
      <point x="736" y="591" type="curve" smooth="yes"/>
      <point x="658" y="492"/>
      <point x="566" y="378"/>
      <point x="479" y="271" type="curve" smooth="yes"/>
      <point x="368" y="134"/>
      <point x="265" y="8"/>
      <point x="204" y="-60" type="curve" smooth="yes"/>
      <point x="198" y="-67"/>
      <point x="195" y="-72"/>
      <point x="195" y="-76" type="curve" smooth="yes"/>
      <point x="195" y="-80"/>
      <point x="198" y="-82"/>
    </contour>
    <contour>
      <point x="647" y="-2" type="curve" smooth="yes"/>
      <point x="622" y="-2"/>
      <point x="600" y="2"/>
      <point x="580" y="12" type="curve"/>
      <point x="574" y="10" type="line"/>
      <point x="568" y="5" type="line"/>
      <point x="568" y="0" type="line"/>
      <point x="614" y="-34"/>
      <point x="694" y="-32"/>
      <point x="779" y="10" type="curve" smooth="yes"/>
      <point x="823" y="33"/>
      <point x="860" y="62"/>
      <point x="893" y="101" type="curve" smooth="yes"/>
      <point x="926" y="138"/>
      <point x="942" y="178"/>
      <point x="942" y="211" type="curve" smooth="yes"/>
      <point x="942" y="280"/>
      <point x="875" y="302"/>
      <point x="812" y="302" type="curve"/>
      <point x="870" y="322"/>
      <point x="916" y="345"/>
      <point x="951" y="369" type="curve" smooth="yes"/>
      <point x="1000" y="403"/>
      <point x="1025" y="442"/>
      <point x="1025" y="482" type="curve" smooth="yes"/>
      <point x="1025" y="523"/>
      <point x="994" y="542"/>
      <point x="952" y="542" type="curve" smooth="yes"/>
      <point x="893" y="542"/>
      <point x="835" y="507"/>
      <point x="777" y="437" type="curve"/>
      <point x="777" y="432" type="line"/>
      <point x="784" y="426" type="line"/>
      <point x="788" y="426" type="line"/>
      <point x="849" y="494"/>
      <point x="911" y="514"/>
      <point x="949" y="512" type="curve" smooth="yes"/>
      <point x="971" y="511"/>
      <point x="977" y="498"/>
      <point x="977" y="482" type="curve" smooth="yes"/>
      <point x="977" y="445"/>
      <point x="956" y="413"/>
      <point x="925" y="386" type="curve" smooth="yes"/>
      <point x="873" y="338"/>
      <point x="792" y="306"/>
      <point x="738" y="283" type="curve"/>
      <point x="734" y="278" type="line"/>
      <point x="735" y="270" type="line"/>
      <point x="742" y="267" type="line"/>
      <point x="874" y="283"/>
      <point x="894" y="238"/>
      <point x="894" y="214" type="curve" smooth="yes"/>
      <point x="894" y="189"/>
      <point x="884" y="150"/>
      <point x="845" y="112" type="curve" smooth="yes"/>
      <point x="812" y="79"/>
      <point x="773" y="46"/>
      <point x="731" y="25" type="curve" smooth="yes"/>
      <point x="697" y="8"/>
      <point x="667" y="-2"/>
    </contour>
  </outline>
</glyph>
<glyph name="threeeighths" format="2">
  <advance width="907"/>
  <unicode hex="215C"/>
  <note>
threeeighths
</note>
  <outline>
    <contour>
      <point x="199" y="-82" type="curve" smooth="yes"/>
      <point x="229" y="-82"/>
      <point x="345" y="32"/>
      <point x="532" y="260" type="curve" smooth="yes"/>
      <point x="616" y="360"/>
      <point x="722" y="506"/>
      <point x="789" y="590" type="curve" smooth="yes"/>
      <point x="975" y="823" type="line" smooth="yes"/>
      <point x="981" y="831"/>
      <point x="984" y="836"/>
      <point x="984" y="841" type="curve" smooth="yes"/>
      <point x="984" y="850"/>
      <point x="974" y="854"/>
      <point x="965" y="854" type="curve" smooth="yes"/>
      <point x="946" y="854"/>
      <point x="932" y="848"/>
      <point x="922" y="836" type="curve" smooth="yes"/>
      <point x="892" y="796"/>
      <point x="822" y="703"/>
      <point x="733" y="591" type="curve" smooth="yes"/>
      <point x="655" y="492"/>
      <point x="563" y="378"/>
      <point x="476" y="271" type="curve" smooth="yes"/>
      <point x="365" y="134"/>
      <point x="262" y="8"/>
      <point x="201" y="-60" type="curve" smooth="yes"/>
      <point x="195" y="-67"/>
      <point x="192" y="-72"/>
      <point x="192" y="-76" type="curve" smooth="yes"/>
      <point x="192" y="-80"/>
      <point x="195" y="-82"/>
    </contour>
    <contour>
      <point x="701" y="-15" type="curve" smooth="yes"/>
      <point x="658" y="-15"/>
      <point x="629" y="12"/>
      <point x="629" y="56" type="curve" smooth="yes"/>
      <point x="629" y="127"/>
      <point x="704" y="181"/>
      <point x="808" y="258" type="curve"/>
      <point x="835" y="193"/>
      <point x="847" y="163"/>
      <point x="845" y="127" type="curve" smooth="yes"/>
      <point x="842" y="55"/>
      <point x="772" y="-15"/>
    </contour>
    <contour>
      <point x="235" y="318" type="curve" smooth="yes"/>
      <point x="210" y="318"/>
      <point x="188" y="322"/>
      <point x="168" y="332" type="curve"/>
      <point x="162" y="330" type="line"/>
      <point x="156" y="325" type="line"/>
      <point x="156" y="320" type="line"/>
      <point x="202" y="286"/>
      <point x="282" y="288"/>
      <point x="367" y="330" type="curve" smooth="yes"/>
      <point x="411" y="353"/>
      <point x="448" y="382"/>
      <point x="481" y="421" type="curve" smooth="yes"/>
      <point x="514" y="458"/>
      <point x="530" y="498"/>
      <point x="530" y="531" type="curve" smooth="yes"/>
      <point x="530" y="600"/>
      <point x="463" y="622"/>
      <point x="400" y="622" type="curve"/>
      <point x="458" y="642"/>
      <point x="504" y="665"/>
      <point x="539" y="689" type="curve" smooth="yes"/>
      <point x="588" y="723"/>
      <point x="613" y="762"/>
      <point x="613" y="802" type="curve" smooth="yes"/>
      <point x="613" y="843"/>
      <point x="582" y="862"/>
      <point x="540" y="862" type="curve" smooth="yes"/>
      <point x="481" y="862"/>
      <point x="423" y="827"/>
      <point x="365" y="757" type="curve"/>
      <point x="365" y="752" type="line"/>
      <point x="372" y="746" type="line"/>
      <point x="376" y="746" type="line"/>
      <point x="437" y="814"/>
      <point x="499" y="834"/>
      <point x="537" y="832" type="curve" smooth="yes"/>
      <point x="559" y="831"/>
      <point x="565" y="818"/>
      <point x="565" y="802" type="curve" smooth="yes"/>
      <point x="565" y="765"/>
      <point x="544" y="733"/>
      <point x="513" y="706" type="curve" smooth="yes"/>
      <point x="461" y="658"/>
      <point x="380" y="626"/>
      <point x="326" y="603" type="curve"/>
      <point x="322" y="598" type="line"/>
      <point x="323" y="590" type="line"/>
      <point x="330" y="587" type="line"/>
      <point x="462" y="603"/>
      <point x="482" y="558"/>
      <point x="482" y="534" type="curve" smooth="yes"/>
      <point x="482" y="509"/>
      <point x="472" y="470"/>
      <point x="433" y="432" type="curve" smooth="yes"/>
      <point x="400" y="399"/>
      <point x="361" y="366"/>
      <point x="319" y="345" type="curve" smooth="yes"/>
      <point x="285" y="328"/>
      <point x="255" y="318"/>
    </contour>
    <contour>
      <point x="700" y="-35" type="curve" smooth="yes"/>
      <point x="794" y="-35"/>
      <point x="892" y="32"/>
      <point x="893" y="124" type="curve" smooth="yes"/>
      <point x="894" y="169"/>
      <point x="873" y="222"/>
      <point x="860" y="249" type="curve"/>
      <point x="894" y="278"/>
      <point x="939" y="308"/>
      <point x="967" y="339" type="curve" smooth="yes"/>
      <point x="1001" y="378"/>
      <point x="1020" y="403"/>
      <point x="1021" y="460" type="curve" smooth="yes"/>
      <point x="1021" y="503"/>
      <point x="983" y="530"/>
      <point x="932" y="530" type="curve" smooth="yes"/>
      <point x="849" y="530"/>
      <point x="773" y="457"/>
      <point x="770" y="374" type="curve" smooth="yes"/>
      <point x="769" y="347"/>
      <point x="782" y="314"/>
      <point x="793" y="289" type="curve"/>
      <point x="754" y="260"/>
      <point x="707" y="234"/>
      <point x="665" y="195" type="curve" smooth="yes"/>
      <point x="617" y="149"/>
      <point x="590" y="103"/>
      <point x="590" y="52" type="curve" smooth="yes"/>
      <point x="590" y="2"/>
      <point x="640" y="-35"/>
    </contour>
    <contour>
      <point x="847" y="280" type="curve"/>
      <point x="815" y="344"/>
      <point x="817" y="347"/>
      <point x="818" y="374" type="curve" smooth="yes"/>
      <point x="821" y="428"/>
      <point x="876" y="510"/>
      <point x="932" y="511" type="curve" smooth="yes"/>
      <point x="965" y="512"/>
      <point x="985" y="490"/>
      <point x="985" y="457" type="curve" smooth="yes"/>
      <point x="985" y="393"/>
      <point x="909" y="332"/>
    </contour>
  </outline>
</glyph>
<glyph name="approxequal" format="2">
  <advance width="507"/>
  <unicode hex="2248"/>
  <note>
approxequal
</note>
  <outline>
    <contour>
      <point x="385" y="328" type="curve" smooth="yes"/>
      <point x="437" y="328"/>
      <point x="523" y="365"/>
      <point x="519" y="420" type="curve" smooth="yes"/>
      <point x="519" y="421" type="line"/>
      <point x="510" y="430"/>
      <point x="504" y="416"/>
      <point x="488" y="399" type="curve" smooth="yes"/>
      <point x="477" y="387"/>
      <point x="455" y="373"/>
      <point x="414" y="373" type="curve" smooth="yes"/>
      <point x="394" y="373"/>
      <point x="361" y="383"/>
      <point x="315" y="401" type="curve" smooth="yes"/>
      <point x="270" y="419"/>
      <point x="236" y="429"/>
      <point x="214" y="429" type="curve" smooth="yes"/>
      <point x="170" y="429"/>
      <point x="100" y="376"/>
      <point x="100" y="342" type="curve" smooth="yes"/>
      <point x="100" y="310"/>
      <point x="106" y="349"/>
      <point x="141" y="373" type="curve" smooth="yes"/>
      <point x="157" y="383"/>
      <point x="168" y="384"/>
      <point x="201" y="384" type="curve" smooth="yes"/>
      <point x="218" y="384"/>
      <point x="249" y="374"/>
      <point x="294" y="356" type="curve" smooth="yes"/>
      <point x="340" y="338"/>
      <point x="370" y="328"/>
    </contour>
    <contour>
      <point x="385" y="184" type="curve" smooth="yes"/>
      <point x="437" y="184"/>
      <point x="523" y="221"/>
      <point x="519" y="276" type="curve" smooth="yes"/>
      <point x="519" y="277" type="line"/>
      <point x="510" y="286"/>
      <point x="504" y="272"/>
      <point x="488" y="255" type="curve" smooth="yes"/>
      <point x="477" y="243"/>
      <point x="455" y="229"/>
      <point x="414" y="229" type="curve" smooth="yes"/>
      <point x="394" y="229"/>
      <point x="361" y="239"/>
      <point x="315" y="257" type="curve" smooth="yes"/>
      <point x="270" y="275"/>
      <point x="236" y="285"/>
      <point x="214" y="285" type="curve" smooth="yes"/>
      <point x="170" y="285"/>
      <point x="100" y="232"/>
      <point x="100" y="198" type="curve" smooth="yes"/>
      <point x="100" y="166"/>
      <point x="106" y="205"/>
      <point x="141" y="229" type="curve" smooth="yes"/>
      <point x="157" y="239"/>
      <point x="168" y="240"/>
      <point x="201" y="240" type="curve" smooth="yes"/>
      <point x="218" y="240"/>
      <point x="249" y="230"/>
      <point x="294" y="212" type="curve" smooth="yes"/>
      <point x="340" y="194"/>
      <point x="370" y="184"/>
    </contour>
  </outline>
</glyph>
<glyph name="_part.j" format="2">
  <advance width="536"/>
  <outline>
    <contour>
      <point x="176" y="-382" type="curve" smooth="yes"/>
      <point x="281" y="-382"/>
      <point x="362" y="-296"/>
      <point x="421" y="-198" type="curve" smooth="yes"/>
      <point x="453" y="-143"/>
      <point x="470" y="-95"/>
      <point x="492" y="-36" type="curve" smooth="yes"/>
      <point x="504" y="-3" type="line"/>
      <point x="561" y="21"/>
      <point x="631" y="109"/>
      <point x="707" y="267" type="curve" smooth="yes"/>
      <point x="723" y="299"/>
      <point x="697" y="305"/>
      <point x="686" y="279" type="curve" smooth="yes"/>
      <point x="646" y="197"/>
      <point x="605" y="131"/>
      <point x="564" y="80" type="curve" smooth="yes"/>
      <point x="545" y="56"/>
      <point x="531" y="44"/>
      <point x="512.915" y="32.192" type="curve"/>
      <point x="526" y="100"/>
      <point x="601" y="352"/>
      <point x="606" y="372" type="curve"/>
      <point x="585" y="364"/>
      <point x="560" y="363"/>
      <point x="550" y="365" type="curve"/>
      <point x="520" y="228" type="line"/>
      <point x="474" y="28" type="line"/>
      <point x="381" y="-7" type="line" smooth="yes"/>
      <point x="231" y="-64"/>
      <point x="62" y="-177"/>
      <point x="54" y="-294" type="curve" smooth="yes"/>
      <point x="48" y="-377"/>
      <point x="125" y="-382"/>
    </contour>
    <contour>
      <point x="287" y="-307" type="curve" smooth="yes"/>
      <point x="226" y="-358"/>
      <point x="92" y="-377"/>
      <point x="95" y="-295" type="curve" smooth="yes"/>
      <point x="98" y="-200"/>
      <point x="169" y="-161"/>
      <point x="246" y="-113" type="curve" smooth="yes"/>
      <point x="326" y="-63"/>
      <point x="437" y="-17"/>
      <point x="463" y="-7" type="curve"/>
      <point x="448" y="-80"/>
      <point x="413" y="-145"/>
      <point x="382" y="-191" type="curve" smooth="yes"/>
      <point x="346" y="-244"/>
      <point x="317" y="-282"/>
    </contour>
  </outline>
</glyph>
<glyph name="_part.left.support.001" format="2">
  <advance width="1381"/>
  <outline>
    <contour>
      <point x="1183" y="105" type="curve" smooth="yes"/>
      <point x="1175" y="47"/>
      <point x="1175" y="-41"/>
      <point x="1252" y="-41" type="curve" smooth="yes"/>
      <point x="1279" y="-41"/>
      <point x="1307" y="-28"/>
      <point x="1334" y="-2" type="curve" smooth="yes"/>
      <point x="1375" y="39"/>
      <point x="1402" y="77"/>
      <point x="1451" y="182" type="curve" smooth="yes"/>
      <point x="1462" y="206"/>
      <point x="1447" y="212"/>
      <point x="1436" y="189" type="curve" smooth="yes"/>
      <point x="1391" y="96"/>
      <point x="1350" y="36"/>
      <point x="1312" y="8" type="curve" smooth="yes"/>
      <point x="1293" y="-6"/>
      <point x="1275" y="-7"/>
      <point x="1259" y="-1" type="curve" smooth="yes"/>
      <point x="1233" y="9"/>
      <point x="1230" y="39"/>
      <point x="1238" y="96" type="curve" smooth="yes"/>
      <point x="1248" y="164"/>
      <point x="1286" y="263"/>
      <point x="1327" y="372" type="curve" smooth="yes"/>
      <point x="1378" y="508"/>
      <point x="1440" y="639"/>
      <point x="1480" y="698" type="curve" smooth="yes"/>
      <point x="1506" y="737"/>
      <point x="1537" y="754"/>
      <point x="1537" y="760" type="curve" smooth="yes"/>
      <point x="1537" y="766"/>
      <point x="1515" y="763"/>
      <point x="1482" y="752" type="curve" smooth="yes"/>
      <point x="1460" y="744"/>
      <point x="1441" y="722"/>
      <point x="1416" y="685" type="curve" smooth="yes"/>
      <point x="1370" y="616"/>
      <point x="1302" y="455"/>
      <point x="1270" y="372" type="curve" smooth="yes"/>
      <point x="1216" y="233"/>
      <point x="1188" y="140"/>
    </contour>
  </outline>
</glyph>
<glyph name="_smart.aGl" format="2">
  <anchor x="-14" y="351" name="_aGl"/>
  <outline>
    <contour>
      <point x="-51" y="286" type="curve" smooth="yes"/>
      <point x="146" y="499" type="line" smooth="yes"/>
      <point x="181" y="537"/>
      <point x="120" y="561"/>
      <point x="86" y="523" type="curve" smooth="yes"/>
      <point x="-92" y="324" type="line" smooth="yes"/>
      <point x="-120" y="292"/>
      <point x="-68" y="267"/>
    </contour>
    <contour>
      <point x="44" y="462" type="curve" smooth="yes"/>
      <point x="55" y="476"/>
      <point x="109" y="692"/>
      <point x="98" y="711" type="curve" smooth="yes"/>
      <point x="88" y="733"/>
      <point x="81" y="720"/>
      <point x="57" y="693" type="curve" smooth="yes"/>
      <point x="43" y="674"/>
      <point x="45" y="644"/>
      <point x="34" y="479" type="curve" smooth="yes"/>
      <point x="32" y="447"/>
      <point x="42" y="458"/>
    </contour>
  </outline>
</glyph>
<glyph name="_smart.belt" format="2">
  <advance width="335"/>
  <anchor x="196" y="293" name="_belt"/>
  <outline>
    <contour>
      <point x="113" y="257" type="line"/>
      <point x="292" y="257" type="line"/>
      <point x="292" y="294" type="line"/>
      <point x="113" y="294" type="line"/>
    </contour>
  </outline>
</glyph>
<glyph name="_smart.cha" format="2">
  <anchor x="-32" y="209" name="_cha"/>
  <outline>
    <contour>
      <point x="-100" y="179" type="curve" smooth="yes"/>
      <point x="-87" y="187"/>
      <point x="-69" y="215"/>
      <point x="-84" y="245" type="curve" smooth="yes"/>
      <point x="-96" y="272"/>
      <point x="-135" y="302"/>
      <point x="-187" y="278" type="curve" smooth="yes"/>
      <point x="-201" y="272"/>
      <point x="-219" y="244"/>
      <point x="-204" y="212" type="curve" smooth="yes"/>
      <point x="-190" y="182"/>
      <point x="-150" y="157"/>
    </contour>
    <contour>
      <point x="303" y="205" type="curve" smooth="yes"/>
      <point x="317" y="212"/>
      <point x="332" y="238"/>
      <point x="320" y="268" type="curve" smooth="yes"/>
      <point x="306" y="298"/>
      <point x="269" y="315"/>
      <point x="237" y="305" type="curve" smooth="yes"/>
      <point x="206" y="297"/>
      <point x="192" y="266"/>
      <point x="204" y="237" type="curve" smooth="yes"/>
      <point x="217" y="211"/>
      <point x="253" y="183"/>
    </contour>
  </outline>
</glyph>
<glyph name="_smart.da.cap" format="2">
  <anchor x="-256" y="246" name="_da.cap"/>
  <outline>
    <contour>
      <point x="53" y="56" type="curve"/>
      <point x="86" y="251" type="line" smooth="yes"/>
      <point x="87" y="255"/>
      <point x="84" y="261"/>
      <point x="77" y="266" type="curve" smooth="yes"/>
      <point x="69" y="270"/>
      <point x="54" y="280"/>
      <point x="36" y="279" type="curve" smooth="yes"/>
      <point x="-397" y="254" type="line" smooth="yes"/>
      <point x="-421" y="253"/>
      <point x="-476" y="185"/>
      <point x="-425" y="189" type="curve" smooth="yes"/>
      <point x="20" y="228" type="line"/>
      <point x="-19" y="71" type="line" smooth="yes"/>
      <point x="-22" y="59"/>
      <point x="53" y="41"/>
    </contour>
  </outline>
</glyph>
<glyph name="_smart.haa.acute" format="2">
  <anchor x="17" y="389" name="_haa.acute"/>
  <outline>
    <contour>
      <point x="-148" y="257" type="line"/>
      <point x="63" y="383" type="line"/>
      <point x="44" y="414" type="line"/>
      <point x="-167" y="288" type="line"/>
    </contour>
  </outline>
</glyph>
<glyph name="_smart.hat.agl" format="2">
  <anchor x="24" y="560" name="_hat.agl"/>
  <anchor x="1042" y="842" name="_neck"/>
  <outline>
    <contour>
      <point x="-126" y="559" type="line"/>
      <point x="153" y="562" type="line"/>
      <point x="153" y="594" type="line"/>
      <point x="-126" y="594" type="line"/>
    </contour>
  </outline>
</glyph>
<glyph name="_smart.hat" format="2">
  <anchor x="-2" y="381" name="_hat"/>
  <outline>
    <contour>
      <point x="-106" y="429" type="line"/>
      <point x="173" y="432" type="line"/>
      <point x="173" y="464" type="line"/>
      <point x="-106" y="464" type="line"/>
    </contour>
  </outline>
</glyph>
<glyph name="_smart.hat.left" format="2">
  <anchor x="-100" y="386" name="_hat.left"/>
  <outline>
    <contour>
      <point x="-225" y="383" type="line"/>
      <point x="88" y="383" type="line"/>
      <point x="89" y="416" type="line"/>
      <point x="13" y="418" type="line"/>
      <point x="-225" y="418" type="line"/>
      <point x="-271" y="416" type="line"/>
      <point x="-271" y="385" type="line"/>
    </contour>
  </outline>
</glyph>
<glyph name="_smart.hha.neck" format="2">
  <anchor x="-22" y="393" name="_hha.neck"/>
  <outline>
    <contour>
      <point x="40" y="411" type="line"/>
      <point x="151" y="629" type="line"/>
      <point x="119" y="645" type="line"/>
      <point x="8" y="427" type="line"/>
    </contour>
  </outline>
</glyph>
<glyph name="_smart.hi" format="2">
  <anchor x="-26" y="624" name="_hi"/>
  <outline>
    <contour>
      <point x="104" y="446" type="line"/>
      <point x="123" y="494" type="line"/>
      <point x="1" y="540" type="line" smooth="yes"/>
      <point x="-11" y="544"/>
      <point x="-14" y="549"/>
      <point x="-8" y="561" type="curve" smooth="yes"/>
      <point x="26" y="633" type="line"/>
      <point x="-14" y="650" type="line"/>
      <point x="-60" y="547" type="line" smooth="yes"/>
      <point x="-72" y="520"/>
      <point x="-71" y="512"/>
      <point x="-45" y="502" type="curve" smooth="yes"/>
    </contour>
  </outline>
</glyph>
<glyph name="_smart.ho.ring" format="2">
  <anchor x="11" y="528" name="_ho.ring"/>
  <outline>
    <contour>
      <point x="56" y="547" type="curve" smooth="yes"/>
      <point x="102" y="585"/>
      <point x="105" y="642"/>
      <point x="65" y="673" type="curve" smooth="yes"/>
      <point x="44" y="691"/>
      <point x="-1" y="703"/>
      <point x="-48" y="688" type="curve" smooth="yes"/>
      <point x="-111" y="669"/>
      <point x="-129" y="622"/>
      <point x="-129" y="594" type="curve" smooth="yes"/>
      <point x="-129" y="525"/>
      <point x="-24" y="487"/>
    </contour>
    <contour>
      <point x="-25" y="529" type="curve" smooth="yes"/>
      <point x="-111" y="529"/>
      <point x="-103" y="681"/>
      <point x="-13" y="687" type="curve" smooth="yes"/>
      <point x="23" y="690"/>
      <point x="48" y="655"/>
      <point x="47" y="612" type="curve" smooth="yes"/>
      <point x="41" y="567"/>
      <point x="11" y="529"/>
    </contour>
  </outline>
</glyph>
<glyph name="_smart.ne" format="2">
  <anchor x="-98" y="314" name="_ne"/>
  <outline>
    <contour>
      <point x="-65" y="321" type="curve" smooth="yes"/>
      <point x="-15" y="516" type="line" smooth="yes"/>
      <point x="-11" y="534"/>
      <point x="-21" y="551"/>
      <point x="-24" y="558" type="curve" smooth="yes"/>
      <point x="-29" y="566"/>
      <point x="-35" y="567"/>
      <point x="-39" y="567" type="curve" smooth="yes"/>
      <point x="-206" y="549" type="line"/>
      <point x="-222" y="551"/>
      <point x="-224" y="488"/>
      <point x="-194" y="492" type="curve" smooth="yes"/>
      <point x="-113" y="506" type="line"/>
      <point x="-125" y="356" type="line" smooth="yes"/>
      <point x="-129" y="305"/>
      <point x="-71" y="299"/>
    </contour>
  </outline>
</glyph>
<glyph name="_smart.neck.upright" format="2">
  <anchor x="-1" y="404" name="_neck.upright"/>
  <outline>
    <contour>
      <point x="-20" y="409" type="line"/>
      <point x="15" y="409" type="line"/>
      <point x="19" y="633" type="line"/>
      <point x="-16" y="633" type="line"/>
    </contour>
  </outline>
</glyph>
<glyph name="ba.base" format="2">
  <advance width="507"/>
  <anchor x="328" y="473" name="aGl"/>
  <anchor x="400" y="-22" name="haa"/>
  <anchor x="511" y="667" name="hat"/>
  <anchor x="349" y="817" name="hat.left"/>
  <anchor x="168" y="203" name="he"/>
  <anchor x="313" y="652" name="he.aGl"/>
  <anchor x="479" y="596" name="he.acute"/>
  <anchor x="412" y="-158" name="hee"/>
  <anchor x="350" y="-27" name="hi"/>
  <anchor x="84" y="-4" name="ho"/>
  <anchor x="511" y="273" name="hu"/>
  <anchor x="311" y="-16" name="hwa"/>
  <anchor x="433" y="583" name="ka"/>
  <anchor x="475" y="497" name="neck"/>
  <anchor x="462" y="514" name="top"/>
  <outline>
    <contour>
      <point x="19" y="-13" type="curve"/>
      <point x="61" y="11"/>
      <point x="72" y="-21"/>
      <point x="96" y="19" type="curve"/>
      <point x="101" y="29"/>
      <point x="105" y="40"/>
      <point x="110" y="50" type="curve" smooth="yes"/>
      <point x="129" y="90"/>
      <point x="144" y="128"/>
      <point x="170" y="162" type="curve" smooth="yes"/>
      <point x="220" y="227"/>
      <point x="288" y="279"/>
      <point x="335" y="316" type="curve" smooth="yes"/>
      <point x="371" y="345"/>
      <point x="402" y="367"/>
      <point x="427" y="383" type="curve" smooth="yes"/>
      <point x="512" y="440"/>
      <point x="528" y="425"/>
      <point x="487" y="345" type="curve" smooth="yes"/>
      <point x="439" y="252"/>
      <point x="381" y="124"/>
      <point x="373" y="73" type="curve" smooth="yes"/>
      <point x="361" y="1"/>
      <point x="460" y="-64"/>
      <point x="552" y="53" type="curve" smooth="yes"/>
      <point x="585" y="95"/>
      <point x="625" y="148"/>
      <point x="681" y="259" type="curve" smooth="yes"/>
      <point x="702" y="300"/>
      <point x="678" y="306"/>
      <point x="660" y="272" type="curve" smooth="yes"/>
      <point x="571" y="99"/>
      <point x="511" y="25"/>
      <point x="460" y="25" type="curve" smooth="yes"/>
      <point x="441" y="25"/>
      <point x="416" y="41"/>
      <point x="416" y="67" type="curve" smooth="yes"/>
      <point x="416" y="113"/>
      <point x="454" y="196"/>
      <point x="519" y="316" type="curve" smooth="yes"/>
      <point x="546" y="367"/>
      <point x="579" y="425"/>
      <point x="616" y="490" type="curve"/>
      <point x="611" y="492"/>
      <point x="605" y="493"/>
      <point x="599" y="493" type="curve" smooth="yes"/>
      <point x="549" y="493"/>
      <point x="427" y="412"/>
      <point x="342" y="353" type="curve" smooth="yes"/>
      <point x="296" y="321"/>
      <point x="246" y="277"/>
      <point x="180" y="214" type="curve"/>
      <point x="221" y="293"/>
      <point x="246" y="339"/>
      <point x="269" y="377" type="curve" smooth="yes"/>
      <point x="310" y="442"/>
      <point x="342" y="481"/>
      <point x="364" y="496" type="curve"/>
      <point x="335" y="494"/>
      <point x="343" y="502"/>
      <point x="323" y="502" type="curve" smooth="yes"/>
      <point x="302" y="502"/>
      <point x="290" y="496"/>
      <point x="278" y="484" type="curve" smooth="yes"/>
      <point x="265" y="471"/>
      <point x="244" y="439"/>
      <point x="216" y="387" type="curve" smooth="yes"/>
      <point x="188" y="338"/>
      <point x="154" y="270"/>
      <point x="113" y="184" type="curve" smooth="yes"/>
      <point x="89" y="132"/>
      <point x="68" y="90"/>
      <point x="52" y="56" type="curve" smooth="yes"/>
      <point x="38" y="25"/>
      <point x="27" y="2"/>
    </contour>
  </outline>
</glyph>
<glyph name="le-ethiopic.etcp" format="2">
  <advance width="1185"/>
  <anchor x="1080" y="-47" name="haa"/>
  <anchor x="1117" y="-232" name="hee"/>
  <anchor x="1101" y="-126" name="hi"/>
  <anchor x="1198" y="418" name="ho.ring"/>
  <anchor x="1151" y="272" name="hu"/>
  <anchor x="1116" y="-44" name="hwa"/>
  <anchor x="745" y="-46" name="ring"/>
  <outline>
    <contour>
      <point x="976" y="-6" type="curve" smooth="yes"/>
      <point x="1019" y="27"/>
      <point x="1021" y="80"/>
      <point x="985" y="108" type="curve" smooth="yes"/>
      <point x="966" y="125"/>
      <point x="925" y="135"/>
      <point x="883" y="122" type="curve" smooth="yes"/>
      <point x="826" y="104"/>
      <point x="810" y="62"/>
      <point x="810" y="36" type="curve" smooth="yes"/>
      <point x="810" y="-27"/>
      <point x="904" y="-60"/>
    </contour>
    <contour>
      <point x="904" y="-7" type="curve" smooth="yes"/>
      <point x="845" y="-7"/>
      <point x="849" y="100"/>
      <point x="913" y="105" type="curve" smooth="yes"/>
      <point x="939" y="107"/>
      <point x="957" y="83"/>
      <point x="955" y="51" type="curve" smooth="yes"/>
      <point x="951" y="19"/>
      <point x="930" y="-7"/>
    </contour>
    <component base="la.base.cap" xOffset="18"/>
  </outline>
</glyph>
<glyph name="ma.base" format="2">
  <advance width="918"/>
  <anchor x="763" y="11" name="haa"/>
  <anchor x="265" y="-35" name="haa.acute"/>
  <anchor x="599" y="-184" name="hee"/>
  <anchor x="507" y="-25" name="hi"/>
  <anchor x="376" y="-10" name="ho"/>
  <anchor x="926" y="240" name="hu"/>
  <anchor x="532" y="-28" name="hwa"/>
  <anchor x="312" y="512" name="top"/>
  <outline>
    <contour>
      <point x="215" y="-13" type="curve" smooth="yes"/>
      <point x="255" y="-13"/>
      <point x="301" y="1"/>
      <point x="375" y="64" type="curve" smooth="yes"/>
      <point x="434" y="114"/>
      <point x="475" y="178"/>
      <point x="503" y="245" type="curve" smooth="yes"/>
      <point x="525.574" y="293.092"/>
      <point x="536.588" y="338.294"/>
      <point x="536.989" y="380.607" type="curve"/>
      <point x="553.679" y="373.476"/>
      <point x="573.075" y="370"/>
      <point x="595" y="370" type="curve" smooth="yes"/>
      <point x="603.128" y="370"/>
      <point x="610.848" y="370.816"/>
      <point x="618.252" y="372.355" type="curve"/>
      <point x="594.306" y="339.949"/>
      <point x="573.297" y="303.938"/>
      <point x="557" y="266" type="curve" smooth="yes"/>
      <point x="534" y="217"/>
      <point x="523" y="171"/>
      <point x="523" y="129" type="curve" smooth="yes"/>
      <point x="523" y="35"/>
      <point x="560" y="-13"/>
      <point x="634" y="-13" type="curve" smooth="yes"/>
      <point x="674" y="-13"/>
      <point x="718" y="4"/>
      <point x="765" y="40" type="curve"/>
      <point x="788" y="13"/>
      <point x="821" y="0"/>
      <point x="863" y="0" type="curve" smooth="yes"/>
      <point x="922" y="0"/>
      <point x="963" y="41"/>
      <point x="1001" y="95" type="curve" smooth="yes"/>
      <point x="1043" y="155"/>
      <point x="1075" y="220"/>
      <point x="1102" y="275" type="curve" smooth="yes"/>
      <point x="1108" y="287"/>
      <point x="1092" y="304"/>
      <point x="1082" y="286" type="curve" smooth="yes"/>
      <point x="1074" y="270"/>
      <point x="1066" y="253"/>
      <point x="1038" y="203" type="curve" smooth="yes"/>
      <point x="997" y="126"/>
      <point x="974" y="99"/>
      <point x="944" y="67" type="curve" smooth="yes"/>
      <point x="919" y="40"/>
      <point x="894" y="25"/>
      <point x="866" y="25" type="curve" smooth="yes"/>
      <point x="831" y="25"/>
      <point x="807" y="38"/>
      <point x="794" y="64" type="curve"/>
      <point x="851" y="117"/>
      <point x="894" y="178"/>
      <point x="922" y="245" type="curve" smooth="yes"/>
      <point x="945" y="294"/>
      <point x="956" y="340"/>
      <point x="956" y="383" type="curve" smooth="yes"/>
      <point x="956" y="475"/>
      <point x="919" y="523"/>
      <point x="845" y="523" type="curve" smooth="yes"/>
      <point x="784.31" y="523"/>
      <point x="713.676" y="480.643"/>
      <point x="653.886" y="415.599" type="curve"/>
      <point x="636" y="402"/>
      <point x="618" y="395"/>
      <point x="598" y="395" type="curve" smooth="yes"/>
      <point x="569.675" y="395"/>
      <point x="548.029" y="403.349"/>
      <point x="534.587" y="420.809" type="curve"/>
      <point x="525.286" y="488.11"/>
      <point x="489.09" y="523"/>
      <point x="426" y="523" type="curve" smooth="yes"/>
      <point x="326" y="523"/>
      <point x="199" y="408"/>
      <point x="138" y="266" type="curve" smooth="yes"/>
      <point x="115" y="217"/>
      <point x="104" y="171"/>
      <point x="104" y="129" type="curve" smooth="yes"/>
      <point x="104" y="35"/>
      <point x="141" y="-13"/>
    </contour>
    <contour>
      <point x="243" y="19" type="curve" smooth="yes"/>
      <point x="197" y="19"/>
      <point x="160" y="39"/>
      <point x="153" y="90" type="curve" smooth="yes"/>
      <point x="146" y="142"/>
      <point x="164" y="197"/>
      <point x="200" y="270" type="curve" smooth="yes"/>
      <point x="259" y="397"/>
      <point x="372" y="482"/>
      <point x="438" y="482" type="curve" smooth="yes"/>
      <point x="462.32" y="482"/>
      <point x="480.906" y="469.302"/>
      <point x="491.135" y="447.053" type="curve"/>
      <point x="475.228" y="436.501"/>
      <point x="461" y="414.014"/>
      <point x="461" y="397" type="curve" smooth="yes"/>
      <point x="461" y="377.493"/>
      <point x="480.734" y="373.552"/>
      <point x="499.394" y="380.486" type="curve"/>
      <point x="496.773" y="336.525"/>
      <point x="485.506" y="293.012"/>
      <point x="463" y="248" type="curve" smooth="yes"/>
      <point x="441" y="200"/>
      <point x="421" y="163"/>
      <point x="401" y="139" type="curve" smooth="yes"/>
      <point x="326" y="50"/>
      <point x="268" y="19"/>
    </contour>
    <contour>
      <point x="662" y="19" type="curve" smooth="yes"/>
      <point x="616" y="19"/>
      <point x="579" y="39"/>
      <point x="572" y="90" type="curve" smooth="yes"/>
      <point x="565" y="142"/>
      <point x="583" y="197"/>
      <point x="619" y="270" type="curve" smooth="yes"/>
      <point x="631.312" y="296.503"/>
      <point x="645.976" y="321.177"/>
      <point x="662.074" y="343.631" type="curve"/>
      <point x="685.115" y="339.654"/>
      <point x="722" y="359.68"/>
      <point x="722" y="392" type="curve" smooth="yes"/>
      <point x="722" y="398.843"/>
      <point x="721.203" y="404.712"/>
      <point x="719.637" y="409.581" type="curve"/>
      <point x="768.339" y="455.343"/>
      <point x="820.039" y="482"/>
      <point x="857" y="482" type="curve" smooth="yes"/>
      <point x="895" y="482"/>
      <point x="919" y="451"/>
      <point x="919" y="401" type="curve" smooth="yes"/>
      <point x="919" y="350"/>
      <point x="908" y="300"/>
      <point x="882" y="248" type="curve" smooth="yes"/>
      <point x="860" y="201"/>
      <point x="819" y="124"/>
      <point x="789" y="93" type="curve"/>
      <point x="789" y="98" type="line" smooth="yes"/>
      <point x="789" y="118"/>
      <point x="781" y="129"/>
      <point x="765" y="129" type="curve" smooth="yes"/>
      <point x="744" y="129"/>
      <point x="718" y="96"/>
      <point x="718" y="73" type="curve" smooth="yes"/>
      <point x="718" y="60"/>
      <point x="727" y="54"/>
      <point x="739" y="53" type="curve"/>
      <point x="710" y="31"/>
      <point x="685" y="19"/>
    </contour>
  </outline>
</glyph>
<glyph name="na.base" format="2">
  <advance width="371"/>
  <anchor x="291" y="164" name="fe.helper"/>
  <anchor x="242" y="21" name="haa"/>
  <anchor x="362" y="632" name="hat"/>
  <anchor x="132" y="327" name="he"/>
  <anchor x="437" y="329" name="ho.ring"/>
  <anchor x="196" y="-19" name="hwa"/>
  <outline>
    <contour>
      <point x="248" y="-13" type="curve" smooth="yes"/>
      <point x="326" y="-13"/>
      <point x="387" y="15"/>
      <point x="432" y="71" type="curve" smooth="yes"/>
      <point x="490" y="142"/>
      <point x="551" y="251"/>
      <point x="551" y="285" type="curve" smooth="yes"/>
      <point x="551" y="295"/>
      <point x="539" y="305"/>
      <point x="525" y="278" type="curve" smooth="yes"/>
      <point x="483" y="194"/>
      <point x="469" y="168"/>
      <point x="423" y="105" type="curve" smooth="yes"/>
      <point x="376" y="42"/>
      <point x="325" y="14"/>
      <point x="264" y="14" type="curve" smooth="yes"/>
      <point x="202" y="14"/>
      <point x="144" y="62"/>
      <point x="144" y="133" type="curve" smooth="yes"/>
      <point x="144" y="204"/>
      <point x="189" y="305"/>
      <point x="227" y="359" type="curve" smooth="yes"/>
      <point x="287" y="445"/>
      <point x="349" y="488"/>
      <point x="417" y="488" type="curve" smooth="yes"/>
      <point x="440" y="488"/>
      <point x="466" y="465"/>
      <point x="469" y="450" type="curve"/>
      <point x="513" y="447" type="line"/>
      <point x="501" y="478"/>
      <point x="455" y="521"/>
      <point x="398" y="521" type="curve" smooth="yes"/>
      <point x="322" y="521"/>
      <point x="255" y="482"/>
      <point x="197" y="403" type="curve" smooth="yes"/>
      <point x="141" y="326"/>
      <point x="90" y="212"/>
      <point x="90" y="124" type="curve" smooth="yes"/>
      <point x="90" y="52"/>
      <point x="136" y="-13"/>
    </contour>
  </outline>
</glyph>
<glyph name="nna.base.001" format="2">
  <advance width="397"/>
  <anchor x="226" y="20" name="gwa"/>
  <anchor x="191" y="-15" name="haa.acute"/>
  <anchor x="258" y="587" name="hat"/>
  <anchor x="192" y="564" name="he"/>
  <anchor x="335" y="-188" name="hee"/>
  <anchor x="208" y="29" name="hi"/>
  <anchor x="438" y="284" name="hu"/>
  <anchor x="138" y="509" name="nose.ext"/>
  <outline>
    <contour>
      <point x="191" y="-7" type="curve"/>
      <point x="250" y="-6" type="line"/>
      <point x="255" y="8"/>
      <point x="271" y="35"/>
      <point x="297" y="91" type="curve" smooth="yes"/>
      <point x="379" y="264" type="line" smooth="yes"/>
      <point x="388" y="283"/>
      <point x="398" y="302"/>
      <point x="408" y="320" type="curve" smooth="yes"/>
      <point x="438" y="378"/>
      <point x="470" y="446"/>
      <point x="456" y="468" type="curve"/>
      <point x="405" y="463"/>
      <point x="362" y="460"/>
      <point x="329" y="460" type="curve" smooth="yes"/>
      <point x="295" y="460"/>
      <point x="268" y="461"/>
      <point x="249" y="462" type="curve"/>
      <point x="306" y="515"/>
      <point x="300" y="544"/>
      <point x="303" y="589" type="curve" smooth="yes"/>
      <point x="305" y="622"/>
      <point x="304" y="663"/>
      <point x="282" y="663" type="curve" smooth="yes"/>
      <point x="259" y="663"/>
      <point x="246" y="647"/>
      <point x="240" y="616" type="curve" smooth="yes"/>
      <point x="229" y="556"/>
      <point x="217" y="499"/>
      <point x="200" y="442" type="curve"/>
      <point x="229" y="442" type="line"/>
      <point x="314" y="440"/>
      <point x="386" y="450"/>
      <point x="389" y="415" type="curve" smooth="yes"/>
      <point x="391" y="393"/>
      <point x="355" y="327"/>
      <point x="331" y="279" type="curve" smooth="yes"/>
      <point x="252" y="119" type="line" smooth="yes"/>
      <point x="221" y="55"/>
      <point x="199" y="14"/>
    </contour>
  </outline>
</glyph>
<glyph name="oPh.base.cap" format="2">
  <advance width="569"/>
  <anchor x="352" y="335" name="belt.cap"/>
  <anchor x="469" y="-52" name="haa"/>
  <anchor x="233" y="-105" name="haa.acute"/>
  <anchor x="499" y="807" name="he.acute"/>
  <anchor x="307" y="-265" name="hee"/>
  <anchor x="144" y="-157" name="hi"/>
  <anchor x="626" y="175" name="hu"/>
  <anchor x="335" y="-90" name="hwa"/>
  <outline>
    <contour>
      <point x="249" y="-63" type="curve" smooth="yes"/>
      <point x="358" y="-63"/>
      <point x="460" y="-11"/>
      <point x="553" y="92" type="curve" smooth="yes"/>
      <point x="691" y="241"/>
      <point x="735" y="417"/>
      <point x="695" y="572" type="curve" smooth="yes"/>
      <point x="677" y="646"/>
      <point x="630" y="704"/>
      <point x="555" y="746" type="curve" smooth="yes"/>
      <point x="508" y="773"/>
      <point x="442" y="786"/>
      <point x="357" y="786" type="curve" smooth="yes"/>
      <point x="330" y="786"/>
      <point x="294" y="783"/>
      <point x="251" y="776" type="curve" smooth="yes"/>
      <point x="165" y="761"/>
      <point x="100" y="721"/>
      <point x="57" y="656" type="curve" smooth="yes"/>
      <point x="33" y="620"/>
      <point x="21" y="585"/>
      <point x="21" y="550" type="curve" smooth="yes"/>
      <point x="21" y="515"/>
      <point x="29" y="480"/>
      <point x="46" y="447" type="curve" smooth="yes"/>
      <point x="59" y="422"/>
      <point x="75" y="430"/>
      <point x="70" y="453" type="curve" smooth="yes"/>
      <point x="63" y="482"/>
      <point x="59" y="510"/>
      <point x="59" y="536" type="curve" smooth="yes"/>
      <point x="59" y="580"/>
      <point x="70" y="620"/>
      <point x="91" y="655" type="curve" smooth="yes"/>
      <point x="124" y="711"/>
      <point x="178" y="744"/>
      <point x="255" y="754" type="curve" smooth="yes"/>
      <point x="278" y="757"/>
      <point x="303" y="759"/>
      <point x="328" y="759" type="curve" smooth="yes"/>
      <point x="353" y="759"/>
      <point x="379" y="756"/>
      <point x="405" y="750" type="curve" smooth="yes"/>
      <point x="490" y="733"/>
      <point x="555" y="690"/>
      <point x="601" y="621" type="curve" smooth="yes"/>
      <point x="638" y="566"/>
      <point x="656" y="504"/>
      <point x="656" y="433" type="curve" smooth="yes"/>
      <point x="656" y="330"/>
      <point x="622" y="233"/>
      <point x="553" y="142" type="curve" smooth="yes"/>
      <point x="522" y="101"/>
      <point x="485" y="65"/>
      <point x="442" y="32" type="curve" smooth="yes"/>
      <point x="376" y="-18"/>
      <point x="310" y="-43"/>
      <point x="243" y="-43" type="curve" smooth="yes"/>
      <point x="211" y="-43"/>
      <point x="182" y="-32"/>
      <point x="155" y="-10" type="curve" smooth="yes"/>
      <point x="112" y="26"/>
      <point x="91" y="83"/>
      <point x="91" y="160" type="curve" smooth="yes"/>
      <point x="91" y="190"/>
      <point x="97" y="225"/>
      <point x="109" y="266" type="curve" smooth="yes"/>
      <point x="149" y="406"/>
      <point x="230" y="522"/>
      <point x="329" y="590" type="curve" smooth="yes"/>
      <point x="366" y="615"/>
      <point x="400" y="628"/>
      <point x="430" y="628" type="curve" smooth="yes"/>
      <point x="471" y="628"/>
      <point x="494" y="623"/>
      <point x="468" y="638" type="curve" smooth="yes"/>
      <point x="446" y="651"/>
      <point x="423" y="657"/>
      <point x="400" y="657" type="curve" smooth="yes"/>
      <point x="397" y="657"/>
      <point x="393" y="657"/>
      <point x="389" y="656" type="curve" smooth="yes"/>
      <point x="327" y="651"/>
      <point x="271" y="626"/>
      <point x="222" y="580" type="curve" smooth="yes"/>
      <point x="134" y="499"/>
      <point x="76" y="405"/>
      <point x="48" y="294" type="curve" smooth="yes"/>
      <point x="39" y="260"/>
      <point x="35" y="223"/>
      <point x="35" y="184" type="curve" smooth="yes"/>
      <point x="35" y="145"/>
      <point x="43" y="105"/>
      <point x="59" y="64" type="curve" smooth="yes"/>
      <point x="88" y="-9"/>
      <point x="156" y="-63"/>
    </contour>
  </outline>
</glyph>
<glyph name="sa.base.cap" format="2">
  <advance width="1279"/>
  <anchor x="984" y="-91" name="haa"/>
  <anchor x="774" y="-117" name="haa.acute"/>
  <anchor x="1029" y="-292" name="hee"/>
  <anchor x="922" y="-180" name="hi"/>
  <anchor x="505" y="-152" name="ho"/>
  <anchor x="1411" y="268" name="hu"/>
  <anchor x="986" y="-106" name="hwa"/>
  <outline>
    <contour>
      <point x="558" y="-124" type="curve" smooth="yes"/>
      <point x="582" y="-124"/>
      <point x="611" y="-111"/>
      <point x="646" y="-85" type="curve" smooth="yes"/>
      <point x="679" y="-60"/>
      <point x="711" y="-29"/>
      <point x="742" y="8" type="curve" smooth="yes"/>
      <point x="799" y="78"/>
      <point x="846" y="143"/>
      <point x="882" y="203" type="curve"/>
      <point x="865" y="148"/>
      <point x="855" y="68"/>
      <point x="868" y="23" type="curve" smooth="yes"/>
      <point x="884" y="-41"/>
      <point x="927" y="-73"/>
      <point x="996" y="-73" type="curve" smooth="yes"/>
      <point x="1129" y="-73"/>
      <point x="1319" y="60"/>
      <point x="1384" y="225" type="curve" smooth="yes"/>
      <point x="1410" y="296"/>
      <point x="1426" y="368"/>
      <point x="1416" y="436" type="curve" smooth="yes"/>
      <point x="1401" y="532"/>
      <point x="1358" y="593"/>
      <point x="1276" y="609" type="curve" smooth="yes"/>
      <point x="1259" y="612"/>
      <point x="1241" y="614"/>
      <point x="1221" y="613" type="curve" smooth="yes"/>
      <point x="1208" y="613"/>
      <point x="1174" y="600"/>
      <point x="1174" y="588" type="curve" smooth="yes"/>
      <point x="1174" y="584"/>
      <point x="1178" y="582"/>
      <point x="1186" y="582" type="curve" smooth="yes"/>
      <point x="1219" y="582"/>
      <point x="1214" y="590"/>
      <point x="1248" y="590" type="curve" smooth="yes"/>
      <point x="1324" y="590"/>
      <point x="1370" y="535"/>
      <point x="1370" y="427" type="curve" smooth="yes"/>
      <point x="1370" y="373"/>
      <point x="1354" y="308"/>
      <point x="1321" y="231" type="curve" smooth="yes"/>
      <point x="1292" y="163"/>
      <point x="1239" y="98"/>
      <point x="1162" y="37" type="curve" smooth="yes"/>
      <point x="1091" y="-20"/>
      <point x="1032" y="-48"/>
      <point x="984" y="-48" type="curve" smooth="yes"/>
      <point x="933" y="-48"/>
      <point x="907" y="-16"/>
      <point x="907" y="47" type="curve" smooth="yes"/>
      <point x="907" y="88"/>
      <point x="914" y="127"/>
      <point x="963" y="248" type="curve" smooth="yes"/>
      <point x="1015" y="375" type="line" smooth="yes"/>
      <point x="1019" y="386"/>
      <point x="1020" y="398"/>
      <point x="1020" y="411" type="curve" smooth="yes"/>
      <point x="1020" y="424"/>
      <point x="1016" y="433"/>
      <point x="1007" y="438" type="curve"/>
      <point x="984" y="447"/>
      <point x="962" y="420"/>
      <point x="947" y="400" type="curve" smooth="yes"/>
      <point x="928" y="373"/>
      <point x="895" y="321"/>
      <point x="849" y="242" type="curve" smooth="yes"/>
      <point x="757" y="85"/>
      <point x="670" y="-43"/>
      <point x="598" y="-86" type="curve" smooth="yes"/>
      <point x="586" y="-94"/>
      <point x="576" y="-98"/>
      <point x="567" y="-98" type="curve" smooth="yes"/>
      <point x="550" y="-98"/>
      <point x="542" y="-86"/>
      <point x="542" y="-62" type="curve" smooth="yes"/>
      <point x="542" y="-28"/>
      <point x="562" y="45"/>
      <point x="602" y="157" type="curve" smooth="yes"/>
      <point x="630" y="236"/>
      <point x="659" y="309"/>
      <point x="690" y="378" type="curve" smooth="yes"/>
      <point x="735" y="479"/>
      <point x="757" y="563"/>
      <point x="757" y="628" type="curve" smooth="yes"/>
      <point x="757" y="707"/>
      <point x="725" y="761"/>
      <point x="661" y="789" type="curve" smooth="yes"/>
      <point x="577" y="821"/>
      <point x="486" y="812"/>
      <point x="402" y="780" type="curve" smooth="yes"/>
      <point x="217" y="707"/>
      <point x="20" y="530"/>
      <point x="20" y="324" type="curve" smooth="yes"/>
      <point x="20" y="274"/>
      <point x="37" y="212"/>
      <point x="74" y="169" type="curve" smooth="yes"/>
      <point x="113" y="122"/>
      <point x="165" y="99"/>
      <point x="230" y="99" type="curve" smooth="yes"/>
      <point x="286" y="99"/>
      <point x="350" y="125"/>
      <point x="397" y="167" type="curve" smooth="yes"/>
      <point x="459" y="223"/>
      <point x="497" y="305"/>
      <point x="497" y="365" type="curve" smooth="yes"/>
      <point x="497" y="417"/>
      <point x="469" y="464"/>
      <point x="406" y="464" type="curve" smooth="yes"/>
      <point x="371" y="464"/>
      <point x="328" y="450"/>
      <point x="327" y="441" type="curve" smooth="yes"/>
      <point x="325" y="429"/>
      <point x="354" y="440"/>
      <point x="374" y="440" type="curve" smooth="yes"/>
      <point x="423" y="440"/>
      <point x="447" y="413"/>
      <point x="447" y="358" type="curve" smooth="yes"/>
      <point x="447" y="272"/>
      <point x="364" y="125"/>
      <point x="228" y="125" type="curve" smooth="yes"/>
      <point x="181" y="125"/>
      <point x="145" y="140"/>
      <point x="119" y="170" type="curve" smooth="yes"/>
      <point x="91" y="203"/>
      <point x="81" y="246"/>
      <point x="81" y="276" type="curve" smooth="yes"/>
      <point x="81" y="507"/>
      <point x="330" y="784"/>
      <point x="570" y="784" type="curve" smooth="yes"/>
      <point x="641" y="784"/>
      <point x="700" y="756"/>
      <point x="700" y="671" type="curve" smooth="yes"/>
      <point x="700" y="605"/>
      <point x="673" y="506"/>
      <point x="618" y="374" type="curve" smooth="yes"/>
      <point x="531" y="167"/>
      <point x="487" y="29"/>
      <point x="487" y="-38" type="curve" smooth="yes"/>
      <point x="487" y="-95"/>
      <point x="511" y="-124"/>
    </contour>
  </outline>
</glyph>
<glyph name="tsa.base.cap" format="2">
  <advance width="596"/>
  <anchor x="513" y="-167" name="haa"/>
  <anchor x="549" y="855" name="hat"/>
  <anchor x="606" y="358" name="he"/>
  <anchor x="596" y="-325" name="hee"/>
  <anchor x="302" y="-268" name="hi"/>
  <anchor x="68" y="-136" name="ho"/>
  <anchor x="551" y="-54" name="hu"/>
  <anchor x="506" y="634" name="neck"/>
  <anchor x="364" y="699" name="top"/>
  <anchor x="315" y="-324" name="tswa"/>
  <outline>
    <contour>
      <point x="324" y="-18" type="curve" smooth="yes"/>
      <point x="422" y="-18"/>
      <point x="513" y="28"/>
      <point x="596" y="121" type="curve" smooth="yes"/>
      <point x="719" y="253"/>
      <point x="759" y="411"/>
      <point x="723" y="550" type="curve" smooth="yes"/>
      <point x="682" y="719"/>
      <point x="500" y="759"/>
      <point x="326" y="732" type="curve" smooth="yes"/>
      <point x="249" y="718"/>
      <point x="191" y="683"/>
      <point x="153" y="625" type="curve" smooth="yes"/>
      <point x="109" y="558"/>
      <point x="114" y="495"/>
      <point x="143" y="438" type="curve" smooth="yes"/>
      <point x="155" y="415"/>
      <point x="169" y="423"/>
      <point x="164" y="443" type="curve" smooth="yes"/>
      <point x="150" y="501"/>
      <point x="148" y="566"/>
      <point x="183" y="624" type="curve" smooth="yes"/>
      <point x="213" y="674"/>
      <point x="261" y="703"/>
      <point x="330" y="712" type="curve" smooth="yes"/>
      <point x="447" y="729"/>
      <point x="568" y="699"/>
      <point x="639" y="593" type="curve" smooth="yes"/>
      <point x="724" y="467"/>
      <point x="693" y="293"/>
      <point x="596" y="165" type="curve" smooth="yes"/>
      <point x="534" y="85"/>
      <point x="432" y="0"/>
      <point x="319" y="0" type="curve" smooth="yes"/>
      <point x="290" y="0"/>
      <point x="265" y="10"/>
      <point x="240" y="29" type="curve"/>
      <point x="172" y="88"/>
      <point x="175" y="195"/>
      <point x="199" y="276" type="curve" smooth="yes"/>
      <point x="235" y="401"/>
      <point x="308" y="505"/>
      <point x="396" y="566" type="curve" smooth="yes"/>
      <point x="429" y="588"/>
      <point x="459" y="597"/>
      <point x="486" y="600" type="curve" smooth="yes"/>
      <point x="511" y="602"/>
      <point x="543" y="595"/>
      <point x="520" y="608" type="curve" smooth="yes"/>
      <point x="500" y="620"/>
      <point x="480" y="625"/>
      <point x="459" y="625" type="curve" smooth="yes"/>
      <point x="404" y="625"/>
      <point x="346" y="600"/>
      <point x="300" y="557" type="curve" smooth="yes"/>
      <point x="222" y="484"/>
      <point x="170" y="400"/>
      <point x="145" y="301" type="curve" smooth="yes"/>
      <point x="131" y="245"/>
      <point x="125" y="172"/>
      <point x="155" y="96" type="curve" smooth="yes"/>
      <point x="181" y="30"/>
      <point x="241" y="-18"/>
    </contour>
    <contour>
      <point x="314" y="-292" type="curve" smooth="yes"/>
      <point x="409" y="-277"/>
      <point x="509" y="-211"/>
      <point x="509" y="-142" type="curve" smooth="yes"/>
      <point x="509" y="-63"/>
      <point x="432" y="-31"/>
      <point x="327" y="-31" type="curve" smooth="yes"/>
      <point x="239" y="-31"/>
      <point x="163" y="-49"/>
      <point x="98" y="-86" type="curve" smooth="yes"/>
      <point x="52" y="-112"/>
      <point x="-4" y="-136"/>
      <point x="-75" y="-226" type="curve" smooth="yes"/>
      <point x="-115" y="-277"/>
      <point x="-91" y="-290"/>
      <point x="-44" y="-247" type="curve" smooth="yes"/>
      <point x="16" y="-193"/>
      <point x="69" y="-149"/>
      <point x="127" y="-118" type="curve" smooth="yes"/>
      <point x="187" y="-86"/>
      <point x="252" y="-61"/>
      <point x="335" y="-60" type="curve" smooth="yes"/>
      <point x="418" y="-59"/>
      <point x="481" y="-73"/>
      <point x="481" y="-134" type="curve" smooth="yes"/>
      <point x="481" y="-192"/>
      <point x="400" y="-259"/>
      <point x="317" y="-273" type="curve" smooth="yes"/>
      <point x="306" y="-274"/>
      <point x="301" y="-278"/>
      <point x="301" y="-285" type="curve" smooth="yes"/>
      <point x="301" y="-291"/>
      <point x="305" y="-293"/>
    </contour>
  </outline>
</glyph>
<glyph name="tsa.base" format="2">
  <advance width="395"/>
  <anchor x="305" y="-162" name="haa"/>
  <anchor x="228" y="760" name="hat"/>
  <anchor x="368" y="310" name="he"/>
  <anchor x="465" y="-295" name="hee"/>
  <anchor x="306" y="-92" name="hi"/>
  <anchor x="188" y="-82" name="ho"/>
  <anchor x="418" y="102" name="hu"/>
  <anchor x="327" y="-103" name="hwa"/>
  <anchor x="359" y="515" name="neck"/>
  <anchor x="304" y="-195" name="tswa"/>
  <outline>
    <contour>
      <point x="292" y="104" type="curve"/>
      <point x="257" y="75" type="line"/>
      <point x="277" y="6"/>
      <point x="307" y="-54"/>
      <point x="310" y="-107" type="curve"/>
      <point x="276" y="-129"/>
      <point x="280" y="-235"/>
      <point x="335" y="-177" type="curve" smooth="yes"/>
      <point x="370" y="-140"/>
      <point x="341" y="-51"/>
      <point x="314" y="40" type="curve" smooth="yes"/>
      <point x="308" y="61"/>
      <point x="297" y="83"/>
    </contour>
    <contour>
      <point x="89" y="-166" type="curve"/>
      <point x="150" y="-166" type="line"/>
      <point x="153" y="-161"/>
      <point x="157" y="-156"/>
      <point x="160" y="-151" type="curve" smooth="yes"/>
      <point x="235" y="-33"/>
      <point x="299" y="70"/>
      <point x="347" y="165" type="curve" smooth="yes"/>
      <point x="383" y="237"/>
      <point x="404" y="281"/>
      <point x="422" y="333" type="curve" smooth="yes"/>
      <point x="451" y="417"/>
      <point x="476" y="525"/>
      <point x="401" y="530" type="curve" smooth="yes"/>
      <point x="337" y="534"/>
      <point x="271" y="515"/>
      <point x="220" y="473" type="curve" smooth="yes"/>
      <point x="168" y="430"/>
      <point x="145" y="372"/>
      <point x="142" y="320" type="curve" smooth="yes"/>
      <point x="136" y="216"/>
      <point x="216" y="116"/>
      <point x="250" y="79" type="curve"/>
      <point x="227" y="43"/>
      <point x="112" y="-137"/>
    </contour>
    <contour>
      <point x="271" y="122" type="curve"/>
      <point x="255" y="151"/>
      <point x="186" y="224"/>
      <point x="192" y="311" type="curve" smooth="yes"/>
      <point x="195" y="350"/>
      <point x="213" y="404"/>
      <point x="269" y="448" type="curve" smooth="yes"/>
      <point x="304" y="476"/>
      <point x="365" y="500"/>
      <point x="396" y="500" type="curve" smooth="yes"/>
      <point x="421" y="500"/>
      <point x="397" y="433"/>
      <point x="378" y="370" type="curve" smooth="yes"/>
      <point x="361" y="314"/>
      <point x="336" y="241"/>
      <point x="301" y="178" type="curve" smooth="yes"/>
      <point x="276" y="133"/>
      <point x="279" y="135"/>
    </contour>
  </outline>
</glyph>
<glyph name="wa.base" format="2">
  <advance width="744"/>
  <anchor x="360" y="8" name="haa"/>
  <anchor x="355" y="-38" name="haa.acute"/>
  <anchor x="668" y="696" name="hat"/>
  <anchor x="571" y="581" name="he.acute"/>
  <anchor x="376" y="-199" name="hee"/>
  <anchor x="280" y="-112" name="hi"/>
  <anchor x="628" y="582" name="ho.ring"/>
  <anchor x="764" y="275" name="hu"/>
  <anchor x="361" y="-5" name="hwa"/>
  <anchor x="551" y="510" name="neck"/>
  <anchor x="676" y="512" name="top"/>
  <outline>
    <contour>
      <point x="460" y="-13" type="curve" smooth="yes"/>
      <point x="500" y="-13"/>
      <point x="544" y="4"/>
      <point x="591" y="40" type="curve"/>
      <point x="614" y="13"/>
      <point x="647" y="0"/>
      <point x="689" y="0" type="curve" smooth="yes"/>
      <point x="748" y="0"/>
      <point x="789" y="41"/>
      <point x="827" y="95" type="curve" smooth="yes"/>
      <point x="869" y="155"/>
      <point x="901" y="220"/>
      <point x="928" y="275" type="curve" smooth="yes"/>
      <point x="934" y="287"/>
      <point x="918" y="304"/>
      <point x="908" y="286" type="curve" smooth="yes"/>
      <point x="900" y="270"/>
      <point x="892" y="253"/>
      <point x="864" y="203" type="curve" smooth="yes"/>
      <point x="823" y="126"/>
      <point x="800" y="99"/>
      <point x="770" y="67" type="curve" smooth="yes"/>
      <point x="745" y="40"/>
      <point x="720" y="25"/>
      <point x="692" y="25" type="curve" smooth="yes"/>
      <point x="657" y="25"/>
      <point x="633" y="38"/>
      <point x="620" y="64" type="curve"/>
      <point x="677" y="117"/>
      <point x="720" y="178"/>
      <point x="748" y="245" type="curve" smooth="yes"/>
      <point x="771" y="294"/>
      <point x="782" y="340"/>
      <point x="782" y="383" type="curve" smooth="yes"/>
      <point x="782" y="475"/>
      <point x="745" y="523"/>
      <point x="671" y="523" type="curve" smooth="yes"/>
      <point x="629" y="523"/>
      <point x="582" y="502"/>
      <point x="537" y="468" type="curve"/>
      <point x="521" y="511"/>
      <point x="487" y="533"/>
      <point x="437" y="533" type="curve" smooth="yes"/>
      <point x="337" y="533"/>
      <point x="210" y="418"/>
      <point x="149" y="276" type="curve" smooth="yes"/>
      <point x="126" y="227"/>
      <point x="115" y="181"/>
      <point x="115" y="139" type="curve" smooth="yes"/>
      <point x="115" y="45"/>
      <point x="152" y="-3"/>
      <point x="226" y="-3" type="curve" smooth="yes"/>
      <point x="258" y="-3"/>
      <point x="324" y="16"/>
      <point x="366" y="40" type="curve"/>
      <point x="384" y="5"/>
      <point x="415" y="-13"/>
    </contour>
    <contour>
      <point x="254" y="29" type="curve" smooth="yes"/>
      <point x="208" y="29"/>
      <point x="171" y="49"/>
      <point x="164" y="100" type="curve" smooth="yes"/>
      <point x="157" y="152"/>
      <point x="175" y="207"/>
      <point x="211" y="280" type="curve" smooth="yes"/>
      <point x="270" y="407"/>
      <point x="383" y="492"/>
      <point x="449" y="492" type="curve" smooth="yes"/>
      <point x="478" y="492"/>
      <point x="499" y="474"/>
      <point x="507" y="443" type="curve"/>
      <point x="457" y="397"/>
      <point x="412" y="335"/>
      <point x="383" y="266" type="curve" smooth="yes"/>
      <point x="360" y="217"/>
      <point x="349" y="171"/>
      <point x="349" y="129" type="curve" smooth="yes"/>
      <point x="349" y="104"/>
      <point x="352" y="82"/>
      <point x="357" y="63" type="curve"/>
      <point x="330" y="47"/>
      <point x="273" y="29"/>
    </contour>
    <contour>
      <point x="488" y="19" type="curve" smooth="yes"/>
      <point x="442" y="19"/>
      <point x="405" y="39"/>
      <point x="398" y="90" type="curve" smooth="yes"/>
      <point x="391" y="142"/>
      <point x="409" y="197"/>
      <point x="445" y="270" type="curve" smooth="yes"/>
      <point x="504" y="397"/>
      <point x="617" y="482"/>
      <point x="683" y="482" type="curve" smooth="yes"/>
      <point x="721" y="482"/>
      <point x="745" y="451"/>
      <point x="745" y="401" type="curve" smooth="yes"/>
      <point x="745" y="350"/>
      <point x="734" y="300"/>
      <point x="708" y="248" type="curve" smooth="yes"/>
      <point x="686" y="201"/>
      <point x="645" y="124"/>
      <point x="615" y="93" type="curve"/>
      <point x="615" y="98" type="line" smooth="yes"/>
      <point x="615" y="118"/>
      <point x="607" y="129"/>
      <point x="591" y="129" type="curve" smooth="yes"/>
      <point x="570" y="129"/>
      <point x="544" y="96"/>
      <point x="544" y="73" type="curve" smooth="yes"/>
      <point x="544" y="60"/>
      <point x="553" y="54"/>
      <point x="565" y="53" type="curve"/>
      <point x="536" y="31"/>
      <point x="511" y="19"/>
    </contour>
  </outline>
</glyph>
